<svg width="573" height="437" viewBox="0 0 573 437" fill="none" xmlns="http://www.w3.org/2000/svg">
<path fill-rule="evenodd" clip-rule="evenodd" d="M278.374 428.072H549.242V158.725L286.291 16.0717L24.2424 158.725V428.072H244.111L237.242 386.072L254.242 386.072C254.576 383.572 254.242 377.672 250.242 374.072C245.242 369.572 251.242 374.072 244.742 378.072C239.542 381.272 230.576 379.405 226.742 378.072C228.409 372.572 234.594 360.915 246.242 367.572C256.742 373.572 257.242 379.072 257.242 386.072L261.242 386.072C262.242 383.072 263.642 371.972 261.242 351.572C253.576 351.572 242.642 344.872 260.242 318.072C283.842 342.072 272.742 350.405 264.242 351.572C266.642 369.972 265.242 382.238 264.242 386.072H270.244C270.275 381.697 270.822 378.195 277.486 374.387C285.156 370.004 289.229 377.679 290.327 381.301C287.802 382.179 281.898 383.408 278.474 381.301C274.193 378.667 278.144 375.704 274.852 378.667C272.456 380.824 272.058 384.234 272.171 386.072H285.242L278.374 428.072ZM449.433 361.234H313.715V262.091C312.643 227.671 347.776 210.25 382.56 210.605C416.159 210.948 449.433 227.876 449.433 262.091V361.234Z" fill="#F9F8F4"/>
<path fill-rule="evenodd" clip-rule="evenodd" d="M313.715 361.234H449.433V262.091C449.433 227.876 416.159 210.948 382.56 210.605C347.776 210.25 312.643 227.671 313.715 262.091V361.234ZM322.695 265.273L322.674 291.403H377.569V219.578C335.15 219.578 322.674 249.006 322.695 265.273ZM322.695 353.253L322.674 299.384H377.569V353.253H322.695ZM440.45 353.253V299.384H385.554V353.253H440.45ZM440.45 265.273V291.403H385.554L385.575 219.578C427.994 219.578 440.47 249.006 440.45 265.273Z" fill="#F9F8F4"/>
<path d="M254.242 386.072L237.242 386.072L244.111 428.072L245.419 436.072H277.065L278.374 428.072L285.242 386.072H272.171H270.244H264.242H261.242L257.242 386.072L254.242 386.072Z" fill="#F9F8F4"/>
<path d="M261.242 351.572C263.642 371.972 262.242 383.072 261.242 386.072H264.242C265.242 382.238 266.642 369.972 264.242 351.572C272.742 350.405 283.842 342.072 260.242 318.072C242.642 344.872 253.576 351.572 261.242 351.572Z" fill="#F9F8F4"/>
<path d="M254.242 386.072L257.242 386.072C257.242 379.072 256.742 373.572 246.242 367.572C234.594 360.915 228.409 372.572 226.742 378.072C230.576 379.405 239.542 381.272 244.742 378.072C251.242 374.072 245.242 369.572 250.242 374.072C254.242 377.672 254.576 383.572 254.242 386.072Z" fill="#F9F8F4"/>
<path d="M274.852 378.667C278.144 375.704 274.193 378.667 278.474 381.301C281.898 383.408 287.802 382.179 290.327 381.301C289.229 377.679 285.156 370.004 277.486 374.387C270.822 378.195 270.275 381.697 270.244 386.072H272.171C272.058 384.234 272.456 380.824 274.852 378.667Z" fill="#F9F8F4"/>
<path d="M487.742 112.242V27.5717H400.742V64.0271L487.742 112.242Z" fill="#F9F8F4"/>
<path d="M400.742 27.5717H487.742H494.742V11.0717H394.242V27.5717H400.742Z" fill="#F9F8F4"/>
<path d="M286.291 16.0717L549.242 158.725L572.242 159.072L487.742 112.242L400.742 64.0271L286.242 0.571655L286.291 16.0717Z" fill="#F9F8F4"/>
<path d="M24.2424 158.725L286.291 16.0717L286.242 0.571655L0.242432 159.072L24.2424 158.725Z" fill="#F9F8F4"/>
<path d="M549.242 428.072V428.572H549.742V428.072H549.242ZM24.2424 428.072H23.7424V428.572H24.2424V428.072ZM313.715 361.234H313.215V361.734H313.715V361.234ZM449.433 361.234V361.734H449.933V361.234H449.433ZM313.715 262.091H314.215V262.084L314.215 262.076L313.715 262.091ZM382.56 210.605L382.555 211.105L382.56 210.605ZM322.674 291.403L322.174 291.403L322.174 291.903H322.674V291.403ZM322.695 265.273L323.195 265.273V265.272L322.695 265.273ZM322.674 299.384V298.884H322.174L322.174 299.384L322.674 299.384ZM322.695 353.253L322.195 353.253L322.195 353.753H322.695V353.253ZM440.45 299.384H440.95V298.884H440.45V299.384ZM440.45 353.253V353.753H440.95V353.253H440.45ZM440.45 291.403V291.903H440.95V291.403H440.45ZM440.45 265.273L439.95 265.272V265.273H440.45ZM377.569 353.253V353.753H378.069V353.253H377.569ZM385.554 353.253H385.054V353.753H385.554V353.253ZM377.569 219.578H378.069V219.078H377.569V219.578ZM377.569 291.403V291.903H378.069V291.403H377.569ZM385.575 219.578V219.078H385.075L385.075 219.578L385.575 219.578ZM385.554 291.403L385.054 291.403L385.054 291.903H385.554V291.403ZM385.554 299.384V298.884H385.054V299.384H385.554ZM377.569 299.384H378.069V298.884H377.569V299.384ZM0.242432 159.072L6.47157e-05 158.634L0.249644 159.572L0.242432 159.072ZM286.242 0.571655L286.485 0.134324L286.242 5.66244e-06L286 0.134324L286.242 0.571655ZM572.242 159.072L572.235 159.572L572.485 158.634L572.242 159.072ZM487.742 112.242L487.5 112.679L487.742 112.242ZM400.742 64.0271L400.5 64.4644L400.742 64.0271ZM394.242 27.5717H393.742V28.0717H394.242V27.5717ZM394.242 11.0717V10.5717H393.742V11.0717H394.242ZM494.742 27.5717V28.0717H495.242V27.5717H494.742ZM494.742 11.0717H495.242V10.5717H494.742V11.0717ZM277.065 436.072V436.572H277.49L277.559 436.152L277.065 436.072ZM285.242 386.072L285.736 386.152L285.831 385.572H285.242V386.072ZM245.419 436.072L244.926 436.152L244.995 436.572H245.419V436.072ZM237.242 386.072V385.572H236.654L236.749 386.152L237.242 386.072ZM261.242 351.572L261.739 351.513L261.687 351.072H261.242V351.572ZM264.242 351.572L264.174 351.076L263.682 351.144L263.747 351.636L264.242 351.572ZM260.242 318.072L260.599 317.721L260.165 317.279L259.824 317.797L260.242 318.072ZM262.253 346.969C262.196 347.239 262.369 347.504 262.639 347.561C262.91 347.618 263.175 347.445 263.232 347.175L262.742 347.072L262.253 346.969ZM261.714 327.406C261.623 327.146 261.338 327.009 261.077 327.1C260.817 327.191 260.679 327.476 260.771 327.737L261.242 327.572L261.714 327.406ZM250.242 374.072L249.908 374.443V374.443L250.242 374.072ZM244.742 378.072L245.004 378.498L244.742 378.072ZM226.742 378.072L226.264 377.927L226.125 378.386L226.578 378.544L226.742 378.072ZM246.242 367.572L245.994 368.006V368.006L246.242 367.572ZM257.242 386.072V386.572V386.572V386.072ZM244.701 371.07C244.976 371.093 245.218 370.888 245.241 370.613C245.264 370.338 245.059 370.096 244.784 370.073L244.742 370.572L244.701 371.07ZM233.456 373.162C233.229 373.32 233.174 373.632 233.333 373.858C233.491 374.085 233.803 374.14 234.029 373.981L233.742 373.572L233.456 373.162ZM274.852 378.667L274.517 378.296V378.296L274.852 378.667ZM278.474 381.301L278.212 381.727V381.727L278.474 381.301ZM290.327 381.301L290.491 381.773L290.944 381.616L290.805 381.156L290.327 381.301ZM277.486 374.387L277.734 374.821V374.821L277.486 374.387ZM278.432 375.864C278.157 375.887 277.952 376.129 277.975 376.404C277.998 376.679 278.24 376.884 278.515 376.861L278.474 376.362L278.432 375.864ZM283.456 378.481C283.682 378.64 283.994 378.585 284.152 378.358C284.31 378.132 284.255 377.82 284.029 377.662L283.742 378.072L283.456 378.481ZM24.2424 428.072H24.7424V158.725H24.2424H23.7424V428.072H24.2424ZM24.2424 158.725L24.4815 159.165L286.53 16.5108L286.291 16.0717L286.052 15.6325L24.0034 158.286L24.2424 158.725ZM549.242 158.725L549.481 158.286L286.529 15.6322L286.291 16.0717L286.052 16.5111L549.004 159.165L549.242 158.725ZM549.242 158.725H548.742V428.072H549.242H549.742V158.725H549.242ZM313.715 361.234V361.734H449.433V361.234V360.734H313.715V361.234ZM449.433 361.234H449.933V262.091H449.433H448.933V361.234H449.433ZM313.715 262.091H313.215V361.234H313.715H314.215V262.091H313.715ZM449.433 262.091H449.933C449.933 244.796 441.512 231.864 428.878 223.233C416.259 214.613 399.438 210.277 382.565 210.105L382.56 210.605L382.555 211.105C399.281 211.275 415.896 215.576 428.314 224.059C440.716 232.532 448.933 245.172 448.933 262.091H449.433ZM382.56 210.605L382.565 210.105C365.098 209.927 347.514 214.21 334.415 222.891C321.301 231.582 312.673 244.694 313.215 262.107L313.715 262.091L314.215 262.076C313.685 245.069 322.088 232.26 334.968 223.724C347.863 215.178 365.238 210.928 382.555 211.105L382.56 210.605ZM322.674 291.403L323.174 291.404L323.195 265.273L322.695 265.273L322.195 265.272L322.174 291.403L322.674 291.403ZM322.674 299.384L322.174 299.384L322.195 353.253L322.695 353.253L323.195 353.253L323.174 299.384L322.674 299.384ZM440.45 299.384H439.95V353.253H440.45H440.95V299.384H440.45ZM440.45 291.403H440.95V265.273H440.45H439.95V291.403H440.45ZM322.695 353.253V353.753H377.569V353.253V352.753H322.695V353.253ZM385.554 353.253V353.753H440.45V353.253V352.753H385.554V353.253ZM377.569 219.578H377.069V291.403H377.569H378.069V219.578H377.569ZM322.674 291.403V291.903H377.569V291.403V290.903H322.674V291.403ZM385.575 219.578L385.075 219.578L385.054 291.403L385.554 291.403L386.054 291.404L386.075 219.578L385.575 219.578ZM385.554 291.403V291.903H440.45V291.403V290.903H385.554V291.403ZM385.554 299.384H385.054V353.253H385.554H386.054V299.384H385.554ZM440.45 299.384V298.884H385.554V299.384V299.884H440.45V299.384ZM377.569 299.384H377.069V353.253H377.569H378.069V299.384H377.569ZM377.569 299.384V298.884H322.674V299.384V299.884H377.569V299.384ZM322.695 265.273L323.195 265.272C323.185 257.25 326.261 245.949 334.589 236.659C342.904 227.385 356.487 220.078 377.569 220.078V219.578V219.078C356.233 219.078 342.368 226.484 333.845 235.992C325.336 245.483 322.184 257.029 322.195 265.273L322.695 265.273ZM440.45 265.273L440.95 265.273C440.96 257.029 437.809 245.483 429.3 235.992C420.776 226.484 406.911 219.078 385.575 219.078V219.578V220.078C406.658 220.078 420.241 227.385 428.555 236.659C436.884 245.949 439.96 257.25 439.95 265.272L440.45 265.273ZM24.2424 158.725L24.2352 158.225L0.235219 158.572L0.242432 159.072L0.249644 159.572L24.2496 159.225L24.2424 158.725ZM0.242432 159.072L0.484799 159.509L286.485 1.00899L286.242 0.571655L286 0.134324L6.47157e-05 158.634L0.242432 159.072ZM572.242 159.072L572.485 158.634L487.985 111.805L487.742 112.242L487.5 112.679L572 159.509L572.242 159.072ZM487.742 112.242H488.242V27.5717H487.742H487.242V112.242H487.742ZM487.742 27.5717V27.0717H400.742V27.5717V28.0717H487.742V27.5717ZM487.742 112.242L487.985 111.805L400.985 63.5897L400.742 64.0271L400.5 64.4644L487.5 112.679L487.742 112.242ZM400.742 64.0271L400.985 63.5897L286.485 0.134324L286.242 0.571655L286 1.00899L400.5 64.4644L400.742 64.0271ZM400.742 27.5717H400.242V64.0271H400.742H401.242V27.5717H400.742ZM400.742 27.5717V27.0717H394.242V27.5717V28.0717H400.742V27.5717ZM394.242 27.5717H394.742V11.0717H394.242H393.742V27.5717H394.242ZM487.742 27.5717V28.0717H494.742V27.5717V27.0717H487.742V27.5717ZM494.742 27.5717H495.242V11.0717H494.742H494.242V27.5717H494.742ZM494.742 11.0717V10.5717H394.242V11.0717V11.5717H494.742V11.0717ZM572.242 159.072L572.25 158.572L549.25 158.225L549.242 158.725L549.235 159.225L572.235 159.572L572.242 159.072ZM237.242 386.072V386.572H261.242V386.072V385.572H237.242V386.072ZM261.242 386.072L261.717 386.23C262.24 384.659 262.842 381.075 263.017 375.362C263.193 369.634 262.941 361.734 261.739 351.513L261.242 351.572L260.746 351.63C261.943 361.809 262.192 369.659 262.018 375.331C261.843 381.018 261.245 384.484 260.768 385.914L261.242 386.072ZM261.242 386.072V386.572H264.242V386.072V385.572H261.242V386.072ZM264.242 386.072L264.726 386.198C265.748 382.283 267.143 369.947 264.738 351.507L264.242 351.572L263.747 351.636C266.141 369.996 264.737 382.194 263.759 385.945L264.242 386.072ZM261.242 351.572V351.072C257.522 351.072 253.149 349.454 251.747 344.729C250.323 339.933 251.872 331.728 260.66 318.346L260.242 318.072L259.824 317.797C251.012 331.216 249.229 339.761 250.788 345.014C252.369 350.34 257.296 352.072 261.242 352.072V351.572ZM264.242 351.572L264.31 352.067C268.638 351.473 273.83 349.024 274.773 343.468C275.24 340.713 274.64 337.273 272.464 333.038C270.287 328.804 266.52 323.742 260.599 317.721L260.242 318.072L259.886 318.422C265.765 324.401 269.46 329.381 271.574 333.496C273.689 337.61 274.207 340.827 273.787 343.3C272.955 348.202 268.347 350.504 264.174 351.076L264.242 351.572ZM262.742 347.072L263.232 347.175C263.912 343.943 264.552 335.513 261.714 327.406L261.242 327.572L260.771 327.737C263.533 335.63 262.906 343.867 262.253 346.969L262.742 347.072ZM254.242 386.072L254.738 386.138C254.913 384.829 254.91 382.667 254.353 380.367C253.796 378.064 252.674 375.587 250.577 373.7L250.242 374.072L249.908 374.443C251.811 376.156 252.855 378.429 253.381 380.602C253.908 382.777 253.906 384.814 253.747 386.006L254.242 386.072ZM250.242 374.072L250.577 373.7C249.954 373.14 249.505 372.722 249.175 372.419C248.866 372.135 248.622 371.915 248.449 371.809C248.401 371.78 248.331 371.742 248.247 371.718C248.163 371.694 248.011 371.671 247.848 371.747C247.678 371.827 247.598 371.966 247.564 372.058C247.531 372.145 247.523 372.226 247.52 372.275C247.514 372.374 247.523 372.489 247.53 372.579C247.539 372.682 247.548 372.788 247.556 372.914C247.584 373.399 247.569 374.103 247.188 374.914C246.807 375.724 246.038 376.687 244.48 377.646L244.742 378.072L245.004 378.498C246.696 377.456 247.615 376.357 248.093 375.339C248.572 374.322 248.588 373.432 248.554 372.855C248.546 372.715 248.534 372.588 248.527 372.497C248.518 372.393 248.517 372.351 248.518 372.335C248.518 372.327 248.518 372.362 248.499 372.413C248.477 372.469 248.416 372.585 248.273 372.652C248.136 372.717 248.018 372.692 247.976 372.681C247.933 372.669 247.914 372.654 247.926 372.662C247.996 372.705 248.154 372.84 248.499 373.156C248.823 373.453 249.281 373.879 249.908 374.443L250.242 374.072ZM244.742 378.072L244.48 377.646C242.014 379.164 238.6 379.504 235.264 379.273C231.944 379.043 228.787 378.254 226.907 377.599L226.742 378.072L226.578 378.544C228.531 379.223 231.775 380.034 235.195 380.271C238.602 380.506 242.271 380.18 245.004 378.498L244.742 378.072ZM226.742 378.072L227.221 378.217C228.041 375.512 229.966 371.324 233.076 368.642C234.622 367.308 236.448 366.357 238.569 366.128C240.689 365.899 243.155 366.383 245.994 368.006L246.242 367.572L246.49 367.138C243.505 365.432 240.83 364.878 238.462 365.134C236.096 365.389 234.087 366.449 232.423 367.884C229.111 370.741 227.111 375.132 226.264 377.927L226.742 378.072ZM246.242 367.572L245.994 368.006C251.192 370.976 253.85 373.786 255.229 376.663C256.613 379.55 256.742 382.571 256.742 386.072H257.242H257.742C257.742 382.572 257.622 379.343 256.131 376.231C254.634 373.108 251.793 370.167 246.49 367.138L246.242 367.572ZM244.742 370.572L244.784 370.073C242.71 369.901 237.582 370.274 233.456 373.162L233.742 373.572L234.029 373.981C237.903 371.269 242.774 370.909 244.701 371.07L244.742 370.572ZM274.852 378.667L275.186 379.039C275.6 378.667 275.903 378.385 276.115 378.19C276.223 378.092 276.304 378.018 276.367 377.964C276.399 377.937 276.423 377.917 276.441 377.903C276.46 377.888 276.468 377.884 276.466 377.885C276.465 377.885 276.459 377.889 276.448 377.894C276.438 377.899 276.418 377.908 276.391 377.916C276.342 377.929 276.217 377.953 276.076 377.887C275.928 377.818 275.864 377.698 275.841 377.636C275.819 377.578 275.817 377.536 275.817 377.534C275.817 377.53 275.817 377.545 275.811 377.617C275.807 377.674 275.799 377.761 275.793 377.856C275.77 378.251 275.781 378.869 276.113 379.574C276.444 380.28 277.075 381.027 278.212 381.727L278.474 381.301L278.736 380.875C277.733 380.258 277.252 379.647 277.018 379.149C276.783 378.651 276.774 378.219 276.792 377.915C276.796 377.835 276.802 377.768 276.808 377.698C276.813 377.641 276.82 377.553 276.815 377.474C276.813 377.435 276.806 377.361 276.776 377.281C276.743 377.195 276.666 377.06 276.501 376.982C276.343 376.908 276.197 376.931 276.12 376.953C276.043 376.975 275.981 377.009 275.944 377.032C275.812 377.112 275.637 377.272 275.439 377.453C275.221 377.653 274.927 377.927 274.517 378.296L274.852 378.667ZM278.474 381.301L278.212 381.727C280.057 382.863 282.517 383.076 284.772 382.919C287.042 382.762 289.193 382.225 290.491 381.773L290.327 381.301L290.162 380.829C288.936 381.255 286.873 381.772 284.703 381.922C282.519 382.073 280.314 381.847 278.736 380.875L278.474 381.301ZM290.327 381.301L290.805 381.156C290.243 379.3 288.913 376.374 286.698 374.464C285.582 373.501 284.227 372.785 282.628 372.612C281.026 372.439 279.229 372.815 277.238 373.953L277.486 374.387L277.734 374.821C279.578 373.767 281.166 373.46 282.52 373.606C283.876 373.753 285.046 374.36 286.045 375.221C288.058 376.958 289.313 379.68 289.848 381.446L290.327 381.301ZM278.474 376.362L278.515 376.861C279.159 376.807 279.75 376.78 280.49 376.969C281.237 377.16 282.17 377.581 283.456 378.481L283.742 378.072L284.029 377.662C282.681 376.718 281.638 376.23 280.738 376C279.832 375.768 279.106 375.808 278.432 375.864L278.474 376.362ZM245.419 436.072V436.572H277.065V436.072V435.572H245.419V436.072ZM286.242 0.571655L285.742 0.57321L285.791 16.0732L286.291 16.0717L286.791 16.0701L286.742 0.570101L286.242 0.571655ZM278.374 428.072V428.572H549.242V428.072V427.572H278.374V428.072ZM24.2424 428.072V428.572H244.111V428.072V427.572H24.2424V428.072ZM244.111 428.072L244.605 427.991L237.736 385.991L237.242 386.072L236.749 386.152L243.618 428.152L244.111 428.072ZM237.242 386.072V386.572L254.242 386.572V386.072V385.572L237.242 385.572V386.072ZM257.242 386.072V386.572L261.242 386.572V386.072V385.572L257.242 385.572V386.072ZM264.242 386.072V386.572H270.244V386.072V385.572H264.242V386.072ZM270.244 386.072L270.744 386.075C270.759 383.9 270.906 382.032 271.823 380.245C272.737 378.462 274.452 376.696 277.734 374.821L277.486 374.387L277.238 373.953C273.856 375.885 271.966 377.774 270.933 379.788C269.902 381.798 269.76 383.869 269.744 386.068L270.244 386.072ZM274.852 378.667L274.517 378.296C271.954 380.603 271.555 384.204 271.672 386.102L272.171 386.072L272.67 386.041C272.56 384.265 272.957 381.045 275.186 379.039L274.852 378.667ZM272.171 386.072V386.572H285.242V386.072V385.572H272.171V386.072ZM285.242 386.072L284.749 385.991L277.88 427.991L278.374 428.072L278.867 428.152L285.736 386.152L285.242 386.072ZM270.244 386.072L269.744 386.068C269.743 386.234 269.742 386.401 269.742 386.569H270.242H270.742C270.742 386.403 270.743 386.238 270.744 386.075L270.244 386.072ZM245.419 436.072L245.913 435.991L244.605 427.991L244.111 428.072L243.618 428.152L244.926 436.152L245.419 436.072ZM272.218 386.569L272.714 386.503C272.695 386.367 272.68 386.213 272.67 386.041L272.171 386.072L271.672 386.102C271.684 386.295 271.701 386.474 271.722 386.635L272.218 386.569ZM270.244 386.072V386.572H272.171V386.072V385.572H270.244V386.072ZM244.242 428.072V427.572H244.111V428.072V428.572H244.242V428.072ZM277.065 436.072L277.559 436.152L278.867 428.152L278.374 428.072L277.88 427.991L276.572 435.991L277.065 436.072ZM278.374 428.072V427.572H278.242V428.072V428.572H278.374V428.072ZM257.242 386.072V385.572L254.242 385.572V386.072V386.572L257.242 386.572V386.072Z" fill="#1F1F1F"/>
</svg>
