<svg width="328" height="187" viewBox="0 0 328 187" fill="none" xmlns="http://www.w3.org/2000/svg">
<path d="M31.624 18.25C31.624 8.30889 39.6828 0.25 49.624 0.25H277.874C287.815 0.25 295.874 8.30888 295.874 18.25V177.006H31.624V18.25Z" fill="#171717"/>
<path d="M277.874 0.25C287.815 0.25 295.874 8.30888 295.874 18.25V177.006H295.374V18.25C295.374 8.58502 287.539 0.75 277.874 0.75H49.624C39.959 0.75 32.124 8.58502 32.124 18.25V177.006H31.624V18.25C31.624 8.30889 39.6828 0.25 49.624 0.25H277.874Z" fill="#F9F8F4"/>
<path d="M0.25 177.005H327.249V181.866H0.25V177.005Z" fill="#171717"/>
<path d="M27.6472 186.506C9.97158 186.329 2.01756 183.339 0.25 181.866H327.249C318.764 185.755 306.185 186.653 300.956 186.506C217.218 186.58 45.3228 186.683 27.6472 186.506Z" fill="#171717"/>
<path d="M295.874 177.006V18.25C295.874 8.30888 287.815 0.25 277.874 0.25H49.624C39.6828 0.25 31.624 8.30889 31.624 18.25V177.006M295.874 177.006H31.624M295.874 177.006H295.374V18.25C295.374 8.58502 287.539 0.75 277.874 0.75H49.624C39.959 0.75 32.124 8.58502 32.124 18.25V177.006H31.624M327.249 181.866V177.005H0.25V181.866M327.249 181.866H0.25M327.249 181.866C318.764 185.755 306.185 186.653 300.956 186.506C217.218 186.58 45.3228 186.683 27.6472 186.506C9.97158 186.329 2.01756 183.339 0.25 181.866M140.329 177.005C140.329 178.11 141.674 180.541 143.795 180.541H183.855C184.739 180.467 186.639 179.48 187.169 177.005" stroke="#F9F8F4" stroke-width="0.5"/>
</svg>
