<svg width="1024" height="1024" viewBox="0 0 1024 1024" fill="none" xmlns="http://www.w3.org/2000/svg">
<rect width="1024" height="1024" fill="#1F1F1F"/>
<path d="M98.4788 563.894C92.6639 563.894 87.4306 563.313 82.7787 562.15C78.1268 560.922 74.1533 559.211 70.8582 557.014C67.5632 554.754 65.0434 552.073 63.2989 548.972C61.5545 545.872 60.6823 542.448 60.6823 538.701C60.6823 534.955 61.5545 531.563 63.2989 528.527C65.0434 525.427 67.5632 522.778 70.8582 520.582C74.1533 518.321 78.1268 516.609 82.7787 515.447C87.4306 514.219 92.6639 513.606 98.4788 513.606C105.457 513.606 111.659 514.607 117.086 516.609C122.578 518.547 126.875 521.39 129.976 525.136C133.077 528.883 134.628 533.404 134.628 538.701C134.628 544.257 133.077 548.908 129.976 552.654C126.875 556.401 122.578 559.211 117.086 561.084C111.659 562.957 105.457 563.894 98.4788 563.894ZM89.7565 549.069C94.15 549.069 97.8973 548.681 100.999 547.906C104.1 547.131 106.458 546.001 108.073 544.515C109.689 542.965 110.496 541.027 110.496 538.701C110.496 535.278 108.687 532.694 105.069 530.95C101.451 529.206 96.3467 528.334 89.7565 528.334C84.8462 528.334 80.3235 528.624 76.1885 529.206C72.1181 529.787 68.823 530.853 66.3033 532.403C63.8481 533.889 62.6205 535.988 62.6205 538.701C62.6205 541.414 63.8481 543.546 66.3033 545.096C68.823 546.582 72.1181 547.616 76.1885 548.197C80.3235 548.778 84.8462 549.069 89.7565 549.069ZM39.3611 514.962H61.2637L62.6205 533.372V581.819H39.3611V514.962Z" fill="#F8F4EC"/>
<path d="M187.492 563.894C177.219 563.894 168.659 563.054 161.81 561.375C155.026 559.695 149.922 557.014 146.497 553.332C143.138 549.65 141.458 544.806 141.458 538.798C141.458 532.791 143.138 527.946 146.497 524.264C149.922 520.518 155.026 517.804 161.81 516.125C168.659 514.381 177.219 513.509 187.492 513.509C197.7 513.509 206.164 514.381 212.884 516.125C219.668 517.804 224.74 520.518 228.099 524.264C231.459 527.946 233.139 532.791 233.139 538.798C233.139 544.806 231.459 549.65 228.099 553.332C224.74 557.014 219.668 559.695 212.884 561.375C206.164 563.054 197.7 563.894 187.492 563.894ZM187.492 549.844C192.273 549.844 196.279 549.457 199.51 548.681C202.74 547.842 205.195 546.614 206.875 544.999C208.555 543.32 209.395 541.253 209.395 538.798C209.395 536.344 208.555 534.277 206.875 532.597C205.26 530.918 202.837 529.658 199.606 528.818C196.376 527.978 192.338 527.559 187.492 527.559C182.711 527.559 178.641 527.978 175.281 528.818C171.986 529.658 169.466 530.918 167.722 532.597C166.042 534.212 165.202 536.279 165.202 538.798C165.202 541.253 166.042 543.32 167.722 544.999C169.402 546.614 171.889 547.842 175.184 548.681C178.544 549.457 182.646 549.844 187.492 549.844Z" fill="#F8F4EC"/>
<path d="M240.856 514.962H264.115V562.44H240.856V514.962ZM289.119 532.888C284.919 532.888 281.075 533.275 277.586 534.05C274.097 534.826 271.125 535.762 268.67 536.86C266.215 537.894 264.373 538.927 263.146 539.961L262.952 535.31C263.146 533.954 263.663 532.371 264.503 530.562C265.343 528.689 266.473 526.783 267.895 524.845C269.316 522.843 271.06 521.002 273.128 519.322C275.195 517.578 277.554 516.19 280.203 515.156C282.916 514.058 285.888 513.509 289.119 513.509V532.888Z" fill="#F8F4EC"/>
<path d="M293.988 514.962H350.974V529.496H293.988V514.962ZM310.851 500.428H334.11V562.44H310.851V500.428Z" fill="#F8F4EC"/>
<path d="M354.843 517.869H416.287V532.403H354.843V517.869ZM393.9 495.583H416.287V511.086H403.591C401.007 511.022 399.004 511.151 397.582 511.474C396.226 511.797 395.256 512.443 394.675 513.412C394.158 514.381 393.9 515.867 393.9 517.869V562.44H370.64V513.024C370.64 509.149 371.351 505.919 372.772 503.335C374.258 500.751 376.681 498.813 380.041 497.521C383.465 496.229 388.085 495.583 393.9 495.583Z" fill="#F8F4EC"/>
<path d="M467.635 563.894C457.362 563.894 448.801 563.054 441.952 561.375C435.168 559.695 430.064 557.014 426.64 553.332C423.28 549.65 421.6 544.806 421.6 538.798C421.6 532.791 423.28 527.946 426.64 524.264C430.064 520.518 435.168 517.804 441.952 516.125C448.801 514.381 457.362 513.509 467.635 513.509C477.843 513.509 486.307 514.381 493.026 516.125C499.81 517.804 504.882 520.518 508.242 524.264C511.601 527.946 513.281 532.791 513.281 538.798C513.281 544.806 511.601 549.65 508.242 553.332C504.882 557.014 499.81 559.695 493.026 561.375C486.307 563.054 477.843 563.894 467.635 563.894ZM467.635 549.844C472.416 549.844 476.422 549.457 479.652 548.681C482.883 547.842 485.338 546.614 487.018 544.999C488.697 543.32 489.537 541.253 489.537 538.798C489.537 536.344 488.697 534.277 487.018 532.597C485.402 530.918 482.979 529.658 479.749 528.818C476.519 527.978 472.48 527.559 467.635 527.559C462.854 527.559 458.783 527.978 455.424 528.818C452.128 529.658 449.609 530.918 447.864 532.597C446.184 534.212 445.344 536.279 445.344 538.798C445.344 541.253 446.184 543.32 447.864 544.999C449.544 546.614 452.032 547.842 455.327 548.681C458.686 549.457 462.789 549.844 467.635 549.844Z" fill="#F8F4EC"/>
<path d="M522.452 495.583H545.711V562.44H522.452V495.583Z" fill="#F8F4EC"/>
<path d="M581.507 490.06V504.595H556.89V490.06H581.507ZM557.569 514.962H580.828V562.44H557.569V514.962Z" fill="#F8F4EC"/>
<path d="M636.288 563.894C626.015 563.894 617.454 563.054 610.606 561.375C603.822 559.695 598.718 557.014 595.293 553.332C591.934 549.65 590.254 544.806 590.254 538.798C590.254 532.791 591.934 527.946 595.293 524.264C598.718 520.518 603.822 517.804 610.606 516.125C617.454 514.381 626.015 513.509 636.288 513.509C646.496 513.509 654.96 514.381 661.68 516.125C668.464 517.804 673.535 520.518 676.895 524.264C680.255 527.946 681.935 532.791 681.935 538.798C681.935 544.806 680.255 549.65 676.895 553.332C673.535 557.014 668.464 559.695 661.68 561.375C654.96 563.054 646.496 563.894 636.288 563.894ZM636.288 549.844C641.069 549.844 645.075 549.457 648.305 548.681C651.536 547.842 653.991 546.614 655.671 544.999C657.351 543.32 658.191 541.253 658.191 538.798C658.191 536.344 657.351 534.277 655.671 532.597C654.056 530.918 651.633 529.658 648.402 528.818C645.172 527.978 641.134 527.559 636.288 527.559C631.507 527.559 627.437 527.978 624.077 528.818C620.782 529.658 618.262 530.918 616.518 532.597C614.838 534.212 613.998 536.279 613.998 538.798C613.998 541.253 614.838 543.32 616.518 544.999C618.197 546.614 620.685 547.842 623.98 548.681C627.34 549.457 631.442 549.844 636.288 549.844Z" fill="#F8F4EC"/>
<path d="M719.169 545.387H740.587C741.491 547.067 743.203 548.229 745.723 548.875C748.308 549.521 751.99 549.844 756.771 549.844C760.454 549.844 763.168 549.65 764.912 549.263C766.721 548.875 767.884 548.358 768.401 547.713C768.983 547.067 769.273 546.388 769.273 545.678C769.273 544.58 768.659 543.837 767.432 543.449C766.269 542.997 764.266 542.739 761.423 542.674C758.58 542.545 754.672 542.48 749.697 542.48C744.98 542.48 740.748 542.286 737.001 541.899C733.318 541.447 730.185 540.768 727.6 539.864C725.016 538.895 723.045 537.571 721.688 535.891C720.332 534.212 719.653 532.113 719.653 529.593C719.653 526.493 720.655 523.909 722.658 521.842C724.66 519.71 727.374 518.063 730.798 516.9C734.223 515.673 738.164 514.801 742.622 514.284C747.145 513.767 751.861 513.509 756.771 513.509C764.912 513.509 771.567 514.349 776.736 516.028C781.904 517.643 785.716 519.839 788.172 522.617C790.627 525.395 791.822 528.527 791.757 532.016H770.921C770.21 530.336 768.853 529.173 766.85 528.527C764.912 527.881 761.552 527.559 756.771 527.559C752.249 527.559 748.954 527.914 746.886 528.624C744.883 529.27 743.882 530.336 743.882 531.822C743.882 532.791 744.366 533.534 745.335 534.05C746.369 534.503 748.275 534.826 751.053 535.019C753.896 535.213 758.031 535.31 763.458 535.31C767.206 535.31 770.856 535.439 774.41 535.698C778.028 535.956 781.258 536.505 784.101 537.345C787.009 538.185 789.302 539.477 790.982 541.221C792.662 542.965 793.502 545.355 793.502 548.391C793.502 552.073 791.983 555.077 788.947 557.402C785.975 559.663 781.743 561.31 776.251 562.344C770.759 563.377 764.266 563.894 756.771 563.894C750.246 563.894 744.722 563.474 740.199 562.634C735.741 561.795 732.091 560.696 729.248 559.34C726.405 557.919 724.208 556.401 722.658 554.786C721.172 553.106 720.17 551.459 719.653 549.844C719.201 548.165 719.039 546.679 719.169 545.387Z" fill="#F8F4EC"/>
<path d="M826.821 490.06V504.595H802.204V490.06H826.821ZM802.883 514.962H826.142V562.44H802.883V514.962Z" fill="#F8F4EC"/>
<path d="M834.114 514.962H891.1V529.496H834.114V514.962ZM850.977 500.428H874.237V562.44H850.977V500.428Z" fill="#F8F4EC"/>
<path d="M962.906 545.387H985.778C985.197 549.134 983.323 552.396 980.157 555.173C977.056 557.951 972.501 560.115 966.492 561.665C960.548 563.151 952.956 563.894 943.717 563.894C933.961 563.894 925.53 563.119 918.423 561.568C911.38 560.018 905.953 557.402 902.141 553.72C898.329 550.038 896.423 545.064 896.423 538.798C896.423 532.597 898.265 527.655 901.947 523.973C905.695 520.227 911.09 517.546 918.132 515.931C925.174 514.316 933.703 513.509 943.717 513.509C953.538 513.509 961.582 514.381 967.849 516.125C974.116 517.869 978.736 520.711 981.708 524.652C984.68 528.527 986.101 533.792 985.972 540.445H920.07C920.393 542.125 921.298 543.675 922.784 545.096C924.334 546.517 926.693 547.68 929.859 548.585C933.089 549.424 937.386 549.844 942.748 549.844C948.305 549.844 952.86 549.457 956.413 548.681C960.031 547.906 962.196 546.808 962.906 545.387ZM942.748 527.559C935.9 527.559 930.666 528.301 927.048 529.787C923.495 531.273 921.395 532.759 920.749 534.244H963.391C962.939 532.565 961.13 531.047 957.964 529.69C954.798 528.269 949.726 527.559 942.748 527.559Z" fill="#F8F4EC"/>
<path d="M466.302 610.737H474.366C474.706 611.369 475.351 611.807 476.299 612.05C477.272 612.294 478.659 612.415 480.459 612.415C481.845 612.415 482.867 612.342 483.523 612.196C484.204 612.05 484.642 611.856 484.837 611.613C485.056 611.369 485.165 611.114 485.165 610.847C485.165 610.433 484.934 610.154 484.472 610.008C484.034 609.837 483.28 609.74 482.21 609.716C481.14 609.667 479.668 609.643 477.795 609.643C476.02 609.643 474.426 609.57 473.016 609.424C471.629 609.254 470.449 608.998 469.477 608.658C468.504 608.293 467.762 607.795 467.251 607.162C466.74 606.53 466.485 605.74 466.485 604.791C466.485 603.624 466.862 602.651 467.616 601.873C468.37 601.071 469.391 600.45 470.681 600.013C471.97 599.551 473.453 599.222 475.132 599.028C476.834 598.833 478.61 598.736 480.459 598.736C483.523 598.736 486.029 599.052 487.975 599.684C489.92 600.292 491.356 601.119 492.28 602.165C493.204 603.211 493.654 604.39 493.63 605.703H485.785C485.518 605.071 485.007 604.633 484.253 604.39C483.523 604.147 482.259 604.025 480.459 604.025C478.756 604.025 477.515 604.159 476.737 604.426C475.983 604.67 475.606 605.071 475.606 605.63C475.606 605.995 475.788 606.275 476.153 606.469C476.543 606.639 477.26 606.761 478.306 606.834C479.376 606.907 480.933 606.943 482.976 606.943C484.387 606.943 485.761 606.992 487.099 607.089C488.461 607.187 489.677 607.393 490.747 607.709C491.842 608.026 492.706 608.512 493.338 609.169C493.97 609.825 494.287 610.725 494.287 611.868C494.287 613.254 493.715 614.385 492.572 615.26C491.453 616.112 489.86 616.732 487.792 617.121C485.725 617.51 483.28 617.704 480.459 617.704C478.002 617.704 475.922 617.546 474.22 617.23C472.541 616.914 471.167 616.501 470.097 615.99C469.027 615.455 468.2 614.883 467.616 614.276C467.056 613.643 466.679 613.023 466.485 612.415C466.314 611.783 466.254 611.224 466.302 610.737Z" fill="#F8F4EC"/>
<path d="M514.164 617.704C510.296 617.704 507.073 617.388 504.495 616.756C501.941 616.124 500.019 615.115 498.73 613.728C497.466 612.342 496.833 610.518 496.833 608.257C496.833 605.995 497.466 604.171 498.73 602.785C500.019 601.375 501.941 600.353 504.495 599.721C507.073 599.064 510.296 598.736 514.164 598.736C518.007 598.736 521.193 599.064 523.723 599.721C526.277 600.353 528.186 601.375 529.451 602.785C530.716 604.171 531.348 605.995 531.348 608.257C531.348 610.518 530.716 612.342 529.451 613.728C528.186 615.115 526.277 616.124 523.723 616.756C521.193 617.388 518.007 617.704 514.164 617.704ZM514.164 612.415C515.964 612.415 517.472 612.269 518.688 611.977C519.904 611.661 520.828 611.199 521.461 610.591C522.093 609.959 522.409 609.181 522.409 608.257C522.409 607.333 522.093 606.554 521.461 605.922C520.853 605.29 519.94 604.816 518.724 604.499C517.508 604.183 515.988 604.025 514.164 604.025C512.364 604.025 510.831 604.183 509.566 604.499C508.326 604.816 507.377 605.29 506.721 605.922C506.088 606.53 505.772 607.308 505.772 608.257C505.772 609.181 506.088 609.959 506.721 610.591C507.353 611.199 508.29 611.661 509.53 611.977C510.795 612.269 512.339 612.415 514.164 612.415Z" fill="#F8F4EC"/>
<path d="M533.341 600.377H556.473V605.849H533.341V600.377ZM548.045 591.988H556.473V597.824H551.693C550.72 597.8 549.966 597.848 549.431 597.97C548.92 598.091 548.556 598.335 548.337 598.699C548.142 599.064 548.045 599.624 548.045 600.377V617.157H539.288V598.554C539.288 597.094 539.556 595.879 540.091 594.906C540.65 593.933 541.563 593.203 542.827 592.717C544.117 592.231 545.856 591.988 548.045 591.988Z" fill="#F8F4EC"/>
<path d="M557.926 599.283H579.379V604.755H557.926V599.283ZM564.275 593.811H573.031V617.157H564.275V593.811Z" fill="#F8F4EC"/>
<path d="M619.474 613.801L615.68 613.728L623.597 599.283H633.266L621.992 617.157H613.746L604.515 603.296L608.821 603.332L599.225 617.157H590.979L580.289 599.283H589.921L597.364 613.728H593.606L601.852 599.283H611.52L619.474 613.801Z" fill="#F8F4EC"/>
<path d="M646.87 617.668C644.243 617.668 641.908 617.303 639.865 616.574C637.822 615.82 636.204 614.738 635.012 613.327C633.845 611.917 633.261 610.214 633.261 608.22C633.261 606.129 633.845 604.378 635.012 602.967C636.204 601.557 637.822 600.499 639.865 599.794C641.908 599.089 644.243 598.736 646.87 598.736C649.789 598.736 652.307 599.137 654.423 599.94C656.563 600.718 658.205 601.824 659.348 603.259C660.516 604.67 661.099 606.323 661.099 608.22C661.099 609.631 660.771 610.92 660.114 612.087C659.458 613.23 658.509 614.227 657.269 615.078C656.028 615.905 654.532 616.549 652.781 617.011C651.03 617.449 649.059 617.668 646.87 617.668ZM650.154 612.123C652.002 612.123 653.693 612.014 655.225 611.795C656.782 611.552 658.023 611.151 658.947 610.591C659.895 610.032 660.37 609.242 660.37 608.22C660.37 607.174 659.895 606.372 658.947 605.813C658.023 605.253 656.782 604.864 655.225 604.645C653.693 604.426 652.002 604.317 650.154 604.317C647.673 604.317 645.751 604.645 644.389 605.302C643.027 605.934 642.346 606.907 642.346 608.22C642.346 609.071 642.65 609.789 643.258 610.372C643.866 610.956 644.754 611.394 645.922 611.686C647.089 611.977 648.5 612.123 650.154 612.123ZM660.37 599.283H669.126V617.157H660.881C660.881 617.157 660.832 616.878 660.735 616.318C660.662 615.759 660.577 614.956 660.479 613.911C660.406 612.865 660.37 611.637 660.37 610.226V599.283Z" fill="#F8F4EC"/>
<path d="M672.427 599.283H681.184V617.157H672.427V599.283ZM690.597 606.032C689.016 606.032 687.569 606.177 686.255 606.469C684.942 606.761 683.823 607.114 682.899 607.527C681.974 607.916 681.281 608.305 680.819 608.694L680.746 606.943C680.819 606.433 681.014 605.837 681.33 605.156C681.646 604.451 682.072 603.733 682.607 603.004C683.142 602.25 683.799 601.557 684.577 600.925C685.355 600.268 686.243 599.745 687.24 599.356C688.262 598.943 689.381 598.736 690.597 598.736V606.032Z" fill="#F8F4EC"/>
<path d="M717.65 610.737H726.261C726.042 612.148 725.336 613.376 724.144 614.421C722.977 615.467 721.262 616.282 719 616.865C716.762 617.425 713.904 617.704 710.426 617.704C706.753 617.704 703.579 617.413 700.903 616.829C698.252 616.245 696.209 615.26 694.774 613.874C693.339 612.488 692.621 610.616 692.621 608.257C692.621 605.922 693.314 604.062 694.701 602.676C696.112 601.265 698.143 600.256 700.794 599.648C703.445 599.04 706.656 598.736 710.426 598.736C714.123 598.736 717.151 599.064 719.511 599.721C721.87 600.377 723.609 601.447 724.728 602.931C725.847 604.39 726.382 606.372 726.334 608.877H701.524C701.645 609.509 701.986 610.093 702.545 610.628C703.129 611.163 704.017 611.6 705.209 611.941C706.425 612.257 708.042 612.415 710.061 612.415C712.153 612.415 713.868 612.269 715.206 611.977C716.568 611.686 717.383 611.272 717.65 610.737ZM710.061 604.025C707.483 604.025 705.513 604.305 704.15 604.864C702.813 605.424 702.022 605.983 701.779 606.542H717.832C717.662 605.91 716.981 605.338 715.789 604.828C714.597 604.293 712.688 604.025 710.061 604.025Z" fill="#F8F4EC"/>
<path d="M765.216 610.737H773.827C773.608 612.148 772.903 613.376 771.711 614.421C770.543 615.467 768.828 616.282 766.566 616.865C764.329 617.425 761.471 617.704 757.992 617.704C754.319 617.704 751.145 617.413 748.47 616.829C745.818 616.245 743.775 615.26 742.34 613.874C740.905 612.488 740.187 610.616 740.187 608.257C740.187 605.922 740.881 604.062 742.267 602.676C743.678 601.265 745.709 600.256 748.36 599.648C751.011 599.04 754.222 598.736 757.992 598.736C761.689 598.736 764.718 599.064 767.077 599.721C769.436 600.377 771.176 601.447 772.295 602.931C773.413 604.39 773.949 606.372 773.9 608.877H749.09C749.211 609.509 749.552 610.093 750.111 610.628C750.695 611.163 751.583 611.6 752.775 611.941C753.991 612.257 755.609 612.415 757.627 612.415C759.719 612.415 761.434 612.269 762.772 611.977C764.134 611.686 764.949 611.272 765.216 610.737ZM757.627 604.025C755.049 604.025 753.079 604.305 751.717 604.864C750.379 605.424 749.588 605.983 749.345 606.542H765.399C765.229 605.91 764.547 605.338 763.356 604.828C762.164 604.293 760.254 604.025 757.627 604.025Z" fill="#F8F4EC"/>
<path d="M776.824 599.283H785.58V617.157H776.824V599.283ZM798.715 598.736C800.15 598.736 801.537 598.894 802.874 599.21C804.212 599.502 805.404 600.013 806.45 600.742C807.52 601.472 808.372 602.469 809.004 603.733C809.636 604.998 809.953 606.591 809.953 608.512V617.157H801.196V609.606C801.196 607.782 800.722 606.494 799.773 605.74C798.824 604.961 797.11 604.572 794.629 604.572C793.315 604.572 792.038 604.718 790.798 605.01C789.582 605.302 788.487 605.655 787.514 606.068C786.541 606.457 785.775 606.846 785.215 607.235L785.143 605.849C785.24 605.411 785.568 604.803 786.128 604.025C786.711 603.223 787.551 602.42 788.645 601.618C789.74 600.815 791.114 600.134 792.768 599.575C794.446 599.016 796.429 598.736 798.715 598.736Z" fill="#F8F4EC"/>
<path d="M827.978 614.64C824.524 614.64 821.678 614.361 819.44 613.801C817.203 613.218 815.549 612.354 814.478 611.211C813.408 610.044 812.873 608.585 812.873 606.834C812.873 605.205 813.396 603.794 814.442 602.603C815.488 601.387 817.118 600.438 819.331 599.757C821.569 599.076 824.451 598.736 827.978 598.736C828.683 598.736 829.401 598.736 830.131 598.736C830.86 598.736 831.578 598.736 832.283 598.736H846.221V603.332C844.64 603.405 843.034 603.332 841.405 603.113C839.799 602.87 838.316 602.554 836.953 602.165L836.552 601.618C837.647 601.958 838.68 602.396 839.653 602.931C840.651 603.466 841.453 604.11 842.061 604.864C842.669 605.618 842.973 606.518 842.973 607.564C842.973 609.071 842.45 610.36 841.405 611.43C840.383 612.476 838.765 613.278 836.552 613.838C834.363 614.373 831.505 614.64 827.978 614.64ZM835.749 625V624.015C835.749 623.286 835.421 622.848 834.764 622.702C834.132 622.58 833.122 622.519 831.736 622.519H821.557C819.83 622.519 818.431 622.398 817.361 622.155C816.315 621.912 815.512 621.583 814.953 621.17C814.418 620.756 814.053 620.294 813.858 619.784C813.688 619.297 813.603 618.811 813.603 618.325C813.603 617.279 813.992 616.464 814.77 615.881C815.549 615.273 816.74 614.847 818.346 614.604C819.951 614.361 821.994 614.239 824.475 614.239L827.978 614.64C825.935 614.64 824.512 614.75 823.709 614.969C822.907 615.163 822.505 615.564 822.505 616.172C822.505 616.513 822.663 616.768 822.98 616.938C823.296 617.084 823.721 617.157 824.257 617.157H835.02C837.428 617.157 839.325 617.327 840.711 617.668C842.098 618.033 843.071 618.629 843.63 619.455C844.214 620.307 844.506 621.462 844.506 622.921V625H835.749ZM827.978 609.862C829.583 609.862 830.873 609.74 831.845 609.497C832.843 609.229 833.56 608.877 833.998 608.439C834.436 608.001 834.655 607.515 834.655 606.98C834.655 606.372 834.436 605.849 833.998 605.411C833.56 604.974 832.855 604.633 831.882 604.39C830.909 604.147 829.608 604.025 827.978 604.025C826.373 604.025 825.071 604.147 824.074 604.39C823.077 604.633 822.347 604.974 821.885 605.411C821.423 605.849 821.192 606.372 821.192 606.98C821.192 607.515 821.411 608.001 821.848 608.439C822.311 608.877 823.04 609.229 824.038 609.497C825.035 609.74 826.348 609.862 827.978 609.862Z" fill="#F8F4EC"/>
<path d="M858.215 589.908V595.38H848.948V589.908H858.215ZM849.203 599.283H857.96V617.157H849.203V599.283Z" fill="#F8F4EC"/>
<path d="M861.873 599.283H870.63V617.157H861.873V599.283ZM883.764 598.736C885.199 598.736 886.586 598.894 887.924 599.21C889.262 599.502 890.453 600.013 891.499 600.742C892.57 601.472 893.421 602.469 894.053 603.733C894.686 604.998 895.002 606.591 895.002 608.512V617.157H886.245V609.606C886.245 607.782 885.771 606.494 884.822 605.74C883.874 604.961 882.159 604.572 879.678 604.572C878.365 604.572 877.088 604.718 875.847 605.01C874.631 605.302 873.536 605.655 872.563 606.068C871.59 606.457 870.824 606.846 870.265 607.235L870.192 605.849C870.289 605.411 870.617 604.803 871.177 604.025C871.761 603.223 872.6 602.42 873.694 601.618C874.789 600.815 876.163 600.134 877.817 599.575C879.496 599.016 881.478 598.736 883.764 598.736Z" fill="#F8F4EC"/>
<path d="M922.951 610.737H931.562C931.343 612.148 930.638 613.376 929.446 614.421C928.278 615.467 926.563 616.282 924.301 616.865C922.063 617.425 919.206 617.704 915.727 617.704C912.054 617.704 908.88 617.413 906.205 616.829C903.553 616.245 901.51 615.26 900.075 613.874C898.64 612.488 897.922 610.616 897.922 608.257C897.922 605.922 898.616 604.062 900.002 602.676C901.413 601.265 903.444 600.256 906.095 599.648C908.746 599.04 911.957 598.736 915.727 598.736C919.424 598.736 922.453 599.064 924.812 599.721C927.171 600.377 928.911 601.447 930.03 602.931C931.148 604.39 931.683 606.372 931.635 608.877H906.825C906.946 609.509 907.287 610.093 907.846 610.628C908.43 611.163 909.318 611.6 910.51 611.941C911.726 612.257 913.344 612.415 915.362 612.415C917.454 612.415 919.169 612.269 920.507 611.977C921.869 611.686 922.684 611.272 922.951 610.737ZM915.362 604.025C912.784 604.025 910.814 604.305 909.452 604.864C908.114 605.424 907.323 605.983 907.08 606.542H923.134C922.963 605.91 922.282 605.338 921.091 604.828C919.899 604.293 917.989 604.025 915.362 604.025Z" fill="#F8F4EC"/>
<path d="M959.223 610.737H967.833C967.615 612.148 966.909 613.376 965.717 614.421C964.55 615.467 962.835 616.282 960.573 616.865C958.335 617.425 955.477 617.704 951.999 617.704C948.326 617.704 945.152 617.413 942.476 616.829C939.825 616.245 937.782 615.26 936.347 613.874C934.911 612.488 934.194 610.616 934.194 608.257C934.194 605.922 934.887 604.062 936.274 602.676C937.684 601.265 939.715 600.256 942.367 599.648C945.018 599.04 948.229 598.736 951.999 598.736C955.696 598.736 958.724 599.064 961.084 599.721C963.443 600.377 965.182 601.447 966.301 602.931C967.42 604.39 967.955 606.372 967.906 608.877H943.096C943.218 609.509 943.558 610.093 944.118 610.628C944.702 611.163 945.589 611.6 946.781 611.941C947.998 612.257 949.615 612.415 951.634 612.415C953.726 612.415 955.441 612.269 956.778 611.977C958.14 611.686 958.955 611.272 959.223 610.737ZM951.634 604.025C949.056 604.025 947.085 604.305 945.723 604.864C944.386 605.424 943.595 605.983 943.352 606.542H959.405C959.235 605.91 958.554 605.338 957.362 604.828C956.17 604.293 954.261 604.025 951.634 604.025Z" fill="#F8F4EC"/>
<path d="M970.83 599.283H979.587V617.157H970.83V599.283ZM989 606.032C987.419 606.032 985.972 606.177 984.658 606.469C983.345 606.761 982.226 607.114 981.302 607.527C980.377 607.916 979.684 608.305 979.222 608.694L979.149 606.943C979.222 606.433 979.417 605.837 979.733 605.156C980.049 604.451 980.475 603.733 981.01 603.004C981.545 602.25 982.202 601.557 982.98 600.925C983.758 600.268 984.646 599.745 985.643 599.356C986.665 598.943 987.784 598.736 989 598.736V606.032Z" fill="#F8F4EC"/>
<path d="M39.5607 604.048H451.161V606.898H39.5607V604.048Z" fill="#F8F4EC"/>
<path d="M35 429.923C35 413.397 48.3998 400 64.9294 400H245.646C262.175 400 275.575 413.397 275.575 429.923C275.575 446.449 262.175 459.846 245.646 459.846H64.9294C48.3998 459.846 35 446.449 35 429.923Z" fill="#F8F4EC"/>
<path d="M83.9382 434.59L81.8038 434.549L86.2573 426.424H91.6959L85.3543 436.478H80.7161L75.5238 428.681L77.9455 428.701L72.548 436.478H67.9098L61.8965 426.424H67.3146L71.5013 434.549H69.3874L74.0256 426.424H79.4642L83.9382 434.59Z" fill="black"/>
<path d="M105.772 432.867H110.616C110.492 433.66 110.096 434.351 109.425 434.939C108.769 435.527 107.804 435.985 106.531 436.314C105.273 436.628 103.665 436.786 101.709 436.786C99.6426 436.786 97.8571 436.621 96.3521 436.293C94.8607 435.965 93.7115 435.411 92.9042 434.631C92.097 433.851 91.6934 432.798 91.6934 431.471C91.6934 430.158 92.0833 429.112 92.8632 428.332C93.6567 427.539 94.7992 426.971 96.2905 426.629C97.7819 426.287 99.5879 426.116 101.709 426.116C103.788 426.116 105.492 426.301 106.819 426.67C108.146 427.039 109.124 427.641 109.754 428.476C110.383 429.296 110.684 430.411 110.657 431.82H96.701C96.7694 432.176 96.9609 432.504 97.2756 432.805C97.604 433.106 98.1034 433.352 98.7738 433.544C99.4579 433.722 100.368 433.81 101.503 433.81C102.68 433.81 103.645 433.728 104.397 433.564C105.163 433.4 105.622 433.167 105.772 432.867ZM101.503 429.091C100.053 429.091 98.9448 429.248 98.1786 429.563C97.4261 429.878 96.9815 430.192 96.8446 430.507H105.875C105.779 430.151 105.396 429.83 104.725 429.543C104.055 429.242 102.981 429.091 101.503 429.091Z" fill="black"/>
<path d="M125.539 436.765C124.307 436.765 123.199 436.642 122.214 436.396C121.229 436.136 120.387 435.773 119.69 435.308C118.992 434.83 118.458 434.269 118.089 433.626C117.719 432.969 117.535 432.244 117.535 431.451C117.535 430.657 117.719 429.932 118.089 429.276C118.458 428.619 118.992 428.058 119.69 427.593C120.387 427.114 121.229 426.752 122.214 426.506C123.199 426.246 124.307 426.116 125.539 426.116C127.016 426.116 128.33 426.314 129.479 426.711C130.642 427.108 131.552 427.703 132.209 428.496C132.865 429.289 133.194 430.274 133.194 431.451C133.194 432.572 132.865 433.53 132.209 434.323C131.552 435.117 130.642 435.726 129.479 436.15C128.33 436.56 127.016 436.765 125.539 436.765ZM123.692 433.646C124.622 433.646 125.416 433.564 126.072 433.4C126.729 433.236 127.228 432.99 127.57 432.661C127.913 432.333 128.084 431.93 128.084 431.451C128.084 430.712 127.7 430.165 126.934 429.809C126.168 429.44 125.087 429.255 123.692 429.255C122.652 429.255 121.694 429.317 120.818 429.44C119.956 429.563 119.259 429.782 118.725 430.097C118.205 430.411 117.945 430.863 117.945 431.451C117.945 432.025 118.205 432.47 118.725 432.784C119.259 433.099 119.956 433.325 120.818 433.462C121.694 433.585 122.652 433.646 123.692 433.646ZM117.945 422.32V432.579C117.945 433.455 117.911 434.248 117.843 434.959C117.788 435.657 117.726 436.163 117.658 436.478H113.02V422.32H117.945Z" fill="black"/>
<path d="M148.632 436.765C147.154 436.765 145.841 436.56 144.691 436.15C143.542 435.726 142.632 435.117 141.962 434.323C141.305 433.53 140.977 432.572 140.977 431.451C140.977 430.274 141.305 429.289 141.962 428.496C142.632 427.703 143.542 427.108 144.691 426.711C145.841 426.314 147.154 426.116 148.632 426.116C149.863 426.116 150.971 426.246 151.956 426.506C152.942 426.752 153.783 427.114 154.481 427.593C155.179 428.058 155.712 428.619 156.082 429.276C156.451 429.932 156.636 430.657 156.636 431.451C156.636 432.244 156.451 432.969 156.082 433.626C155.712 434.269 155.179 434.83 154.481 435.308C153.783 435.773 152.942 436.136 151.956 436.396C150.971 436.642 149.863 436.765 148.632 436.765ZM150.479 433.646C151.519 433.646 152.47 433.585 153.331 433.462C154.207 433.325 154.905 433.099 155.425 432.784C155.958 432.47 156.225 432.025 156.225 431.451C156.225 430.863 155.958 430.411 155.425 430.097C154.905 429.782 154.207 429.563 153.331 429.44C152.47 429.317 151.519 429.255 150.479 429.255C149.083 429.255 148.002 429.44 147.236 429.809C146.47 430.165 146.087 430.712 146.087 431.451C146.087 431.93 146.258 432.333 146.6 432.661C146.942 432.99 147.441 433.236 148.098 433.4C148.755 433.564 149.548 433.646 150.479 433.646ZM156.225 422.32H161.151V436.478H156.513C156.458 436.163 156.396 435.657 156.328 434.959C156.259 434.248 156.225 433.455 156.225 432.579V422.32Z" fill="black"/>
<path d="M177.583 432.867H182.426C182.303 433.66 181.906 434.351 181.236 434.939C180.579 435.527 179.614 435.985 178.342 436.314C177.083 436.628 175.476 436.786 173.519 436.786C171.453 436.786 169.668 436.621 168.163 436.293C166.671 435.965 165.522 435.411 164.715 434.631C163.907 433.851 163.504 432.798 163.504 431.471C163.504 430.158 163.894 429.112 164.674 428.332C165.467 427.539 166.61 426.971 168.101 426.629C169.592 426.287 171.398 426.116 173.519 426.116C175.599 426.116 177.302 426.301 178.629 426.67C179.956 427.039 180.935 427.641 181.564 428.476C182.193 429.296 182.494 430.411 182.467 431.82H168.511C168.58 432.176 168.771 432.504 169.086 432.805C169.414 433.106 169.914 433.352 170.584 433.544C171.268 433.722 172.178 433.81 173.314 433.81C174.49 433.81 175.455 433.728 176.208 433.564C176.974 433.4 177.432 433.167 177.583 432.867ZM173.314 429.091C171.864 429.091 170.755 429.248 169.989 429.563C169.237 429.878 168.792 430.192 168.655 430.507H177.685C177.589 430.151 177.206 429.83 176.536 429.543C175.866 429.242 174.791 429.091 173.314 429.091Z" fill="black"/>
<path d="M184.009 432.867H188.545C188.736 433.222 189.099 433.468 189.632 433.605C190.18 433.742 190.96 433.81 191.972 433.81C192.752 433.81 193.327 433.769 193.696 433.687C194.079 433.605 194.325 433.496 194.435 433.359C194.558 433.222 194.62 433.079 194.62 432.928C194.62 432.696 194.49 432.538 194.23 432.456C193.983 432.36 193.559 432.306 192.957 432.292C192.355 432.265 191.527 432.251 190.474 432.251C189.475 432.251 188.579 432.21 187.785 432.128C187.006 432.032 186.342 431.888 185.795 431.697C185.247 431.492 184.83 431.211 184.543 430.856C184.255 430.5 184.112 430.055 184.112 429.522C184.112 428.865 184.324 428.318 184.748 427.88C185.172 427.429 185.747 427.08 186.472 426.834C187.197 426.574 188.032 426.389 188.976 426.28C189.934 426.171 190.932 426.116 191.972 426.116C193.696 426.116 195.105 426.294 196.2 426.649C197.294 426.991 198.102 427.456 198.622 428.045C199.141 428.633 199.395 429.296 199.381 430.035H194.968C194.818 429.679 194.531 429.433 194.107 429.296C193.696 429.159 192.985 429.091 191.972 429.091C191.014 429.091 190.317 429.166 189.879 429.317C189.455 429.454 189.243 429.679 189.243 429.994C189.243 430.199 189.345 430.356 189.55 430.466C189.769 430.562 190.173 430.63 190.761 430.671C191.363 430.712 192.239 430.733 193.388 430.733C194.182 430.733 194.955 430.76 195.707 430.815C196.473 430.869 197.158 430.986 197.76 431.163C198.375 431.341 198.861 431.615 199.217 431.984C199.572 432.354 199.75 432.86 199.75 433.503C199.75 434.282 199.429 434.918 198.786 435.411C198.156 435.89 197.26 436.238 196.097 436.457C194.934 436.676 193.559 436.786 191.972 436.786C190.59 436.786 189.42 436.697 188.463 436.519C187.519 436.341 186.746 436.109 186.144 435.821C185.542 435.52 185.076 435.199 184.748 434.857C184.433 434.501 184.221 434.152 184.112 433.81C184.016 433.455 183.982 433.14 184.009 432.867Z" fill="black"/>
<path d="M206.806 421.15V424.228H201.593V421.15H206.806ZM201.737 426.424H206.662V436.478H201.737V426.424Z" fill="black"/>
<path d="M217.155 435.062C215.212 435.062 213.611 434.905 212.353 434.59C211.094 434.262 210.163 433.776 209.561 433.133C208.959 432.477 208.658 431.656 208.658 430.671C208.658 429.755 208.953 428.961 209.541 428.291C210.129 427.607 211.046 427.073 212.291 426.69C213.55 426.307 215.171 426.116 217.155 426.116C217.552 426.116 217.955 426.116 218.366 426.116C218.776 426.116 219.18 426.116 219.577 426.116H227.416V428.701C226.527 428.742 225.624 428.701 224.707 428.578C223.804 428.441 222.97 428.264 222.204 428.045L221.978 427.737C222.594 427.928 223.175 428.175 223.722 428.476C224.283 428.776 224.735 429.139 225.077 429.563C225.419 429.987 225.59 430.493 225.59 431.081C225.59 431.93 225.296 432.655 224.707 433.256C224.133 433.845 223.223 434.296 221.978 434.611C220.746 434.912 219.139 435.062 217.155 435.062ZM221.526 440.889V440.335C221.526 439.925 221.342 439.679 220.972 439.597C220.617 439.528 220.049 439.494 219.269 439.494H213.543C212.571 439.494 211.785 439.426 211.183 439.289C210.594 439.152 210.143 438.967 209.828 438.735C209.527 438.502 209.322 438.242 209.213 437.955C209.117 437.682 209.069 437.408 209.069 437.134C209.069 436.546 209.288 436.088 209.726 435.76C210.163 435.418 210.834 435.178 211.737 435.042C212.64 434.905 213.789 434.836 215.185 434.836L217.155 435.062C216.006 435.062 215.205 435.124 214.754 435.247C214.302 435.356 214.077 435.582 214.077 435.924C214.077 436.115 214.165 436.259 214.343 436.355C214.521 436.437 214.761 436.478 215.062 436.478H221.116C222.47 436.478 223.538 436.574 224.317 436.765C225.097 436.97 225.645 437.305 225.959 437.771C226.288 438.249 226.452 438.899 226.452 439.72V440.889H221.526ZM217.155 432.374C218.058 432.374 218.783 432.306 219.33 432.169C219.891 432.018 220.295 431.82 220.541 431.574C220.788 431.328 220.911 431.054 220.911 430.753C220.911 430.411 220.788 430.117 220.541 429.871C220.295 429.625 219.898 429.433 219.351 429.296C218.804 429.159 218.072 429.091 217.155 429.091C216.252 429.091 215.52 429.159 214.959 429.296C214.398 429.433 213.988 429.625 213.728 429.871C213.468 430.117 213.338 430.411 213.338 430.753C213.338 431.054 213.461 431.328 213.707 431.574C213.967 431.82 214.378 432.018 214.938 432.169C215.499 432.306 216.238 432.374 217.155 432.374Z" fill="black"/>
<path d="M228.745 426.424H233.671V436.478H228.745V426.424ZM241.059 426.116C241.866 426.116 242.646 426.205 243.399 426.383C244.151 426.547 244.822 426.834 245.41 427.244C246.012 427.655 246.491 428.216 246.847 428.927C247.202 429.638 247.38 430.534 247.38 431.615V436.478H242.455V432.23C242.455 431.205 242.188 430.48 241.654 430.055C241.121 429.618 240.156 429.399 238.761 429.399C238.022 429.399 237.303 429.481 236.606 429.645C235.922 429.809 235.306 430.008 234.759 430.24C234.211 430.459 233.78 430.678 233.466 430.897L233.425 430.117C233.479 429.871 233.664 429.529 233.979 429.091C234.307 428.64 234.779 428.188 235.395 427.737C236.01 427.285 236.784 426.902 237.714 426.588C238.658 426.273 239.773 426.116 241.059 426.116Z" fill="black"/>
</svg>
