<svg width="912" height="230" viewBox="0 0 912 230" fill="none" xmlns="http://www.w3.org/2000/svg">
<rect width="912" height="230" fill="#3300FF"/>
<path d="M17 203.177C21.0742 185.614 24.6 168.6 27.5773 152.135C30.7113 135.67 32.2783 119.126 32.2783 102.504C32.2783 90.1157 31.103 77.6491 28.7525 65.1041C26.402 52.4023 22.4845 39.3085 17 25.8226H70.1214C72.7853 30.3702 74.5874 34.9961 75.5276 39.7005C76.6245 44.4049 77.1729 49.1093 77.1729 53.8136C77.1729 60.5566 76.2327 67.3779 74.3523 74.2776C72.4719 81.0206 70.1214 87.6067 67.3008 94.036C64.4802 100.308 61.4246 106.424 58.1338 112.383C54.8431 118.185 51.7875 123.595 48.9669 128.613C46.1463 133.631 43.7958 138.179 41.9154 142.256C40.035 146.333 39.0947 149.783 39.0947 152.605C39.0947 154.801 39.7999 156.604 41.2102 158.015C42.7772 159.27 44.5793 160.289 46.6164 161.073C48.6535 161.701 50.8473 162.093 53.1978 162.249C55.5483 162.406 57.507 162.485 59.074 162.485C64.872 162.485 71.2183 161.857 78.1131 160.603C85.0079 159.348 91.5894 157.937 97.8574 156.369C104.282 154.644 110.002 152.841 115.016 150.959C120.187 149.077 123.791 147.587 125.828 146.49V203.177H17Z" fill="#F2F3EA"/>
<path d="M97.6884 203.177C100.039 196.591 102.703 189.77 105.68 182.713C108.657 175.5 111.635 168.13 114.612 160.603C117.589 152.919 120.41 145.157 123.074 137.316C125.895 129.476 128.323 121.635 130.36 113.794C133.181 102.504 134.591 90.8997 134.591 78.982C134.591 68.3188 133.494 58.2828 131.301 48.874C129.107 39.4653 125.973 31.7815 121.899 25.8226H224.381C224.381 43.2288 224.929 59.8509 226.026 75.6889C227.28 91.527 229.317 106.738 232.137 121.321C235.115 135.905 239.032 150.018 243.89 163.661C248.904 177.147 255.094 190.319 262.459 203.177H181.366C176.509 195.18 172.983 187.731 170.789 180.832C168.752 173.775 167.733 167.111 167.733 160.838C167.733 153.154 168.987 146.019 171.494 139.433C174.158 132.847 177.371 126.81 181.131 121.321C185.049 115.676 189.28 110.501 193.824 105.797C198.368 101.093 202.521 96.8586 206.282 93.0951C210.199 89.1748 213.412 85.6465 215.919 82.5103C218.583 79.2172 219.915 76.3162 219.915 73.8072C219.915 71.1414 218.818 69.4165 216.624 68.6324C214.587 67.8483 212.471 67.4563 210.278 67.4563C206.674 67.4563 202.364 68.162 197.35 69.5733C192.335 70.8278 187.086 72.7879 181.601 75.4537C176.274 78.1195 170.946 81.491 165.618 85.5681C160.29 89.6452 155.511 94.5064 151.28 100.152C147.049 105.64 143.602 111.913 140.938 118.969C138.431 125.869 137.177 133.631 137.177 142.256C137.177 150.88 138.744 160.289 141.878 170.482C145.012 180.518 150.261 191.416 157.626 203.177H97.6884Z" fill="#F2F3EA"/>
<path d="M237.05 144.843C238.93 145.627 241.751 146.647 245.511 147.901C249.429 148.999 253.973 150.253 259.144 151.665C264.315 152.919 269.878 154.252 275.833 155.663C281.944 156.918 288.134 158.094 294.402 159.191C300.67 160.132 306.86 160.995 312.971 161.779C319.082 162.406 324.723 162.72 329.895 162.72C331.148 162.72 333.107 162.641 335.771 162.485C338.591 162.328 341.334 161.936 343.997 161.308C346.661 160.681 349.012 159.74 351.049 158.486C353.086 157.231 354.105 155.506 354.105 153.311C354.105 151.272 352.459 149.626 349.169 148.371C345.878 146.96 341.49 145.627 336.006 144.373C330.678 143.118 324.567 141.785 317.672 140.374C310.777 138.806 303.647 136.924 296.282 134.729C289.074 132.377 282.023 129.476 275.128 126.026C268.233 122.576 262.043 118.342 256.559 113.324C251.231 108.149 246.922 102.033 243.631 94.9769C240.34 87.7635 238.695 79.374 238.695 69.8085C238.695 63.0656 239.87 57.2635 242.221 52.4023C244.728 47.3843 248.019 43.1504 252.093 39.7005C256.167 36.0938 260.79 33.2712 265.961 31.2327C271.289 29.0373 276.773 27.3123 282.414 26.0578C288.212 24.8033 294.01 24.0193 299.808 23.7057C305.763 23.2352 311.247 23 316.262 23C319.396 23 322.686 23.0784 326.134 23.2352C329.581 23.392 332.95 23.6272 336.241 23.9409C339.688 24.2545 342.822 24.5681 345.643 24.8818C348.62 25.1954 351.127 25.509 353.164 25.8226V85.0977C350.814 83.0591 347.915 80.9422 344.468 78.7468C341.177 76.5514 337.259 74.5913 332.715 72.8663C328.327 70.9846 323.235 69.4949 317.437 68.3972C311.639 67.1427 305.057 66.5154 297.693 66.5154C291.738 66.5154 285.862 67.2995 280.064 68.8676C274.423 70.2789 269.33 72.1607 264.785 74.5128C260.398 76.865 256.872 79.5308 254.208 82.5103C251.544 85.4897 250.212 88.4691 250.212 91.4486C250.212 93.644 250.761 95.3689 251.858 96.6234C253.111 97.8779 254.6 98.8972 256.324 99.6812C258.047 100.308 259.928 100.779 261.965 101.093C264.002 101.249 265.804 101.328 267.371 101.328C273.796 101.328 281.161 100.701 289.466 99.446C297.771 98.1915 306.154 97.5643 314.616 97.5643C320.728 97.5643 326.604 98.1915 332.245 99.446C338.043 100.701 343.136 103.131 347.523 106.738C351.911 110.344 355.358 115.362 357.866 121.792C360.529 128.064 361.861 136.297 361.861 146.49C361.861 157.467 359.668 166.797 355.28 174.481C350.892 182.008 345.251 188.123 338.356 192.828C331.618 197.532 324.175 200.904 316.027 202.942C308.035 204.981 300.356 206 292.992 206C289.544 206 285.235 205.922 280.064 205.765C275.049 205.765 269.8 205.608 264.315 205.294C258.988 205.138 253.895 204.824 249.037 204.353C244.179 204.04 240.184 203.648 237.05 203.177V144.843Z" fill="#F2F3EA"/>
<path d="M390.168 203.177C387.034 196.748 384.762 190.554 383.352 184.595C381.942 178.636 381.237 172.834 381.237 167.189C381.237 157.31 382.882 148.058 386.173 139.433C389.463 130.808 393.067 122.889 396.985 115.676C401.059 108.306 404.742 101.72 408.032 95.9177C411.323 89.9589 412.968 84.8625 412.968 80.6285C412.968 76.5514 411.323 73.4936 408.032 71.455C404.898 69.4165 401.451 68.3972 397.69 68.3972C393.929 68.3972 389.933 69.0244 385.702 70.2789C381.628 71.5334 377.554 73.1015 373.48 74.9833C369.406 76.7082 365.566 78.5116 361.962 80.3933C358.515 82.1182 355.538 83.5296 353.03 84.6273V25.8226H486.774V84.6273C485.521 83.6864 483.327 82.2751 480.193 80.3933C477.215 78.3548 473.768 76.3946 469.851 74.5128C465.933 72.4743 461.702 70.7494 457.158 69.338C452.77 67.9267 448.539 67.2211 444.465 67.2211C439.294 67.2211 435.22 68.3972 432.242 70.7494C429.422 72.9447 427.306 75.7673 425.896 79.2172C424.486 82.6671 423.624 86.4306 423.311 90.5077C422.997 94.5848 422.84 98.5051 422.84 102.269C422.84 111.364 423.781 120.302 425.661 129.084C427.698 137.708 430.362 146.254 433.653 154.722C437.1 163.033 441.018 171.266 445.405 179.42C449.95 187.418 454.651 195.337 459.508 203.177H390.168Z" fill="#F2F3EA"/>
<path d="M502.256 203.177C507.271 189.378 511.188 174.716 514.009 159.191C516.829 143.51 518.24 127.515 518.24 111.207C518.24 96.6234 516.908 82.1182 514.244 67.6915C511.58 53.108 507.506 39.1517 502.021 25.8226C509.543 24.7249 516.594 24.0193 523.176 23.7057C529.914 23.2352 535.32 23 539.394 23C547.699 23 554.751 23.7057 560.549 25.117C566.347 26.3715 571.048 28.2532 574.652 30.7622C578.413 33.1144 581.077 36.0154 582.644 39.4653C584.367 42.7584 585.229 46.365 585.229 50.2853C585.229 54.6761 584.289 59.3021 582.409 64.1632C580.685 69.0244 578.256 73.964 575.122 78.982C571.988 84 568.227 89.018 563.84 94.036C559.609 99.054 554.908 103.837 549.737 108.384C553.811 106.659 557.65 105.483 561.254 104.856C564.858 104.072 568.462 103.68 572.066 103.68C578.648 103.68 584.994 104.386 591.105 105.797C597.373 107.051 604.033 107.679 611.085 107.679C615.002 107.679 618.136 107.208 620.487 106.267C622.837 105.17 624.561 103.68 625.658 101.798C626.911 99.7596 627.695 97.329 628.008 94.5064C628.478 91.527 628.714 88.2339 628.714 84.6273C628.714 75.2185 626.441 65.4177 621.897 55.2249C617.509 44.8753 611.476 35.0745 603.798 25.8226H660.915C655.901 39.4653 651.983 54.0488 649.163 69.5733C646.499 85.0977 645.167 100.936 645.167 117.087C645.167 131.828 646.421 146.49 648.928 161.073C651.592 175.657 655.666 189.692 661.15 203.177H588.99C582.409 194.082 579.118 184.987 579.118 175.892C579.118 170.874 579.98 166.013 581.703 161.308C583.427 156.604 585.699 152.057 588.52 147.666C591.497 143.275 594.866 139.12 598.627 135.199C602.388 131.122 606.227 127.28 610.144 123.674C607.794 122.733 604.503 121.635 600.272 120.38C596.198 118.969 591.811 117.715 587.11 116.617C582.565 115.519 578.099 114.578 573.712 113.794C569.324 113.01 565.798 112.618 563.134 112.618C553.419 112.618 546.054 115.676 541.04 121.792C536.182 127.907 533.753 135.434 533.753 144.373C533.753 153.625 536.104 163.504 540.805 174.01C545.506 184.36 551.695 194.082 559.374 203.177H502.256Z" fill="#F2F3EA"/>
<path d="M636.422 203.177C638.773 196.591 641.437 189.77 644.414 182.713C647.391 175.5 650.369 168.13 653.346 160.603C656.323 152.919 659.144 145.157 661.808 137.316C664.628 129.476 667.057 121.635 669.094 113.794C671.915 102.504 673.325 90.8997 673.325 78.982C673.325 68.3188 672.228 58.2828 670.035 48.874C667.841 39.4653 664.707 31.7815 660.633 25.8226H763.115C763.115 43.2288 763.663 59.8509 764.76 75.6889C766.014 91.527 768.051 106.738 770.871 121.321C773.849 135.905 777.766 150.018 782.624 163.661C787.638 177.147 793.828 190.319 801.193 203.177H720.1C715.243 195.18 711.717 187.731 709.523 180.832C707.486 173.775 706.467 167.111 706.467 160.838C706.467 153.154 707.721 146.019 710.228 139.433C712.892 132.847 716.105 126.81 719.865 121.321C723.783 115.676 728.014 110.501 732.558 105.797C737.102 101.093 741.255 96.8586 745.016 93.0951C748.933 89.1748 752.146 85.6465 754.653 82.5103C757.317 79.2172 758.649 76.3162 758.649 73.8072C758.649 71.1414 757.552 69.4165 755.358 68.6324C753.321 67.8483 751.205 67.4563 749.012 67.4563C745.408 67.4563 741.098 68.162 736.084 69.5733C731.069 70.8278 725.82 72.7879 720.335 75.4537C715.008 78.1195 709.68 81.491 704.352 85.5681C699.024 89.6452 694.245 94.5064 690.014 100.152C685.783 105.64 682.336 111.913 679.672 118.969C677.164 125.869 675.911 133.631 675.911 142.256C675.911 150.88 677.478 160.289 680.612 170.482C683.746 180.518 688.995 191.416 696.36 203.177H636.422Z" fill="#F2F3EA"/>
<path d="M798.394 203.177C795.26 196.748 792.988 190.554 791.578 184.595C790.167 178.636 789.462 172.834 789.462 167.189C789.462 157.31 791.108 148.058 794.398 139.433C797.689 130.808 801.293 122.889 805.211 115.676C809.285 108.306 812.967 101.72 816.258 95.9177C819.549 89.9589 821.194 84.8625 821.194 80.6285C821.194 76.5514 819.549 73.4936 816.258 71.455C813.124 69.4165 809.677 68.3972 805.916 68.3972C802.155 68.3972 798.159 69.0244 793.928 70.2789C789.854 71.5334 785.78 73.1015 781.706 74.9833C777.631 76.7082 773.792 78.5116 770.188 80.3933C766.741 82.1182 763.763 83.5296 761.256 84.6273V25.8226H895V84.6273C893.746 83.6864 891.553 82.2751 888.419 80.3933C885.441 78.3548 881.994 76.3946 878.076 74.5128C874.159 72.4743 869.928 70.7494 865.384 69.338C860.996 67.9267 856.765 67.2211 852.691 67.2211C847.52 67.2211 843.446 68.3972 840.468 70.7494C837.648 72.9447 835.532 75.7673 834.122 79.2172C832.712 82.6671 831.85 86.4306 831.536 90.5077C831.223 94.5848 831.066 98.5051 831.066 102.269C831.066 111.364 832.006 120.302 833.887 129.084C835.924 137.708 838.588 146.254 841.879 154.722C845.326 163.033 849.243 171.266 853.631 179.42C858.175 187.418 862.876 195.337 867.734 203.177H798.394Z" fill="#F2F3EA"/>
</svg>
