<svg width="1050" height="600" viewBox="0 0 1050 600" fill="none" xmlns="http://www.w3.org/2000/svg">
<g clip-path="url(#clip0_8_65)">
<rect width="1050" height="600" fill="#F2F3EA"/>
<path d="M-2 600.545C2.89555 579.047 7.13208 558.221 10.7096 538.067C14.4754 517.913 16.3583 497.662 16.3583 477.316C16.3583 462.153 14.9461 446.893 12.1218 431.537C9.29742 415.99 4.59016 399.962 -2 383.455H61.8304C65.0313 389.021 67.1967 394.684 68.3264 400.442C69.6445 406.201 70.3035 411.959 70.3035 417.717C70.3035 425.971 69.1737 434.32 66.9142 442.766C64.6548 451.02 61.8304 459.081 58.4412 466.951C55.052 474.629 51.3803 482.115 47.4262 489.409C43.4721 496.511 39.8004 503.133 36.4112 509.275C33.022 515.417 30.1976 520.984 27.9382 525.974C25.6787 530.965 24.5489 535.188 24.5489 538.643C24.5489 541.33 25.3962 543.537 27.0909 545.265C28.9738 546.8 31.1391 548.048 33.5869 549.008C36.0346 549.775 38.6707 550.255 41.4951 550.447C44.3194 550.639 46.673 550.735 48.556 550.735C55.5227 550.735 63.1484 549.967 71.4332 548.432C79.718 546.896 87.6262 545.169 95.1578 543.249C102.878 541.138 109.75 538.931 115.776 536.627C121.989 534.324 126.32 532.5 128.768 531.157V600.545H-2Z" fill="#3300FF"/>
<path d="M94.9548 600.545C97.7791 592.483 100.98 584.134 104.558 575.496C108.135 566.667 111.713 557.645 115.29 548.432C118.868 539.027 122.257 529.525 125.458 519.928C128.847 510.331 131.766 500.734 134.213 491.136C137.603 477.316 139.297 463.112 139.297 448.524C139.297 435.472 137.979 423.188 135.343 411.671C132.707 400.154 128.941 390.749 124.046 383.455H247.188C247.188 404.761 247.847 425.107 249.165 444.494C250.671 463.88 253.119 482.499 256.508 500.35C260.085 518.201 264.793 535.476 270.63 552.175C276.655 568.682 284.092 584.805 292.942 600.545H195.502C189.665 590.756 185.428 581.638 182.792 573.193C180.344 564.555 179.121 556.398 179.121 548.72C179.121 539.314 180.627 530.581 183.64 522.519C186.84 514.458 190.7 507.068 195.219 500.35C199.927 493.44 205.01 487.105 210.471 481.347C215.931 475.589 220.921 470.406 225.44 465.799C230.147 461.001 234.007 456.682 237.02 452.843C240.221 448.812 241.821 445.261 241.821 442.19C241.821 438.927 240.503 436.816 237.867 435.856C235.419 434.896 232.877 434.416 230.241 434.416C225.911 434.416 220.733 435.28 214.707 437.008C208.682 438.543 202.374 440.943 195.784 444.206C189.382 447.469 182.981 451.596 176.579 456.586C170.177 461.577 164.434 467.527 159.35 474.437C154.266 481.155 150.124 488.833 146.923 497.47C143.91 505.916 142.404 515.417 142.404 525.974C142.404 536.531 144.287 548.048 148.053 560.524C151.818 572.809 158.126 586.149 166.976 600.545H94.9548Z" fill="#3300FF"/>
<path d="M262.41 529.141C264.67 530.101 268.059 531.349 272.578 532.884C277.285 534.228 282.746 535.764 288.959 537.491C295.173 539.027 301.857 540.658 309.012 542.386C316.355 543.921 323.793 545.361 331.325 546.704C338.856 547.856 346.294 548.912 353.637 549.871C360.98 550.639 367.759 551.023 373.972 551.023C375.479 551.023 377.832 550.927 381.033 550.735C384.422 550.543 387.717 550.063 390.918 549.296C394.119 548.528 396.944 547.376 399.392 545.841C401.839 544.305 403.063 542.194 403.063 539.506C403.063 537.011 401.086 534.996 397.132 533.46C393.178 531.733 387.906 530.101 381.316 528.566C374.914 527.03 367.57 525.398 359.286 523.671C351.001 521.751 342.434 519.448 333.584 516.761C324.923 513.882 316.45 510.331 308.165 506.108C299.88 501.885 292.443 496.703 285.852 490.56C279.451 484.226 274.273 476.74 270.319 468.103C266.364 459.273 264.387 449.004 264.387 437.296C264.387 429.042 265.8 421.94 268.624 415.99C271.637 409.847 275.591 404.665 280.486 400.442C285.382 396.027 290.936 392.572 297.15 390.077C303.552 387.39 310.142 385.278 316.92 383.743C323.887 382.207 330.854 381.248 337.821 380.864C344.976 380.288 351.566 380 357.591 380C361.357 380 365.311 380.096 369.453 380.288C373.596 380.48 377.644 380.768 381.598 381.152C385.74 381.536 389.506 381.919 392.895 382.303C396.473 382.687 399.486 383.071 401.933 383.455V456.01C399.109 453.515 395.626 450.924 391.483 448.236C387.529 445.549 382.822 443.15 377.362 441.039C372.089 438.735 365.97 436.912 359.003 435.568C352.036 434.033 344.128 433.265 335.279 433.265C328.124 433.265 321.063 434.225 314.096 436.144C307.318 437.871 301.198 440.175 295.738 443.054C290.466 445.933 286.229 449.196 283.028 452.843C279.827 456.49 278.227 460.137 278.227 463.784C278.227 466.471 278.886 468.583 280.204 470.118C281.71 471.654 283.499 472.901 285.57 473.861C287.641 474.629 289.901 475.205 292.348 475.589C294.796 475.781 296.962 475.877 298.845 475.877C306.564 475.877 315.414 475.109 325.393 473.573C335.373 472.038 345.446 471.27 355.614 471.27C362.957 471.27 370.018 472.038 376.797 473.573C383.763 475.109 389.883 478.084 395.155 482.499C400.427 486.913 404.57 493.056 407.582 500.925C410.783 508.603 412.384 518.68 412.384 531.157C412.384 544.593 409.747 556.014 404.475 565.419C399.203 574.632 392.425 582.118 384.14 587.877C376.044 593.635 367.1 597.762 357.309 600.257C347.706 602.752 338.48 604 329.63 604C325.488 604 320.31 603.904 314.096 603.712C308.071 603.712 301.763 603.52 295.173 603.136C288.771 602.944 282.652 602.56 276.815 601.985C270.978 601.601 266.176 601.121 262.41 600.545V529.141Z" fill="#3300FF"/>
<path d="M446.397 600.545C442.631 592.675 439.901 585.093 438.207 577.799C436.512 570.506 435.665 563.404 435.665 556.494C435.665 544.401 437.642 533.076 441.596 522.519C445.55 511.962 449.881 502.269 454.588 493.44C459.483 484.418 463.908 476.356 467.862 469.254C471.816 461.961 473.793 455.722 473.793 450.54C473.793 445.549 471.816 441.806 467.862 439.311C464.096 436.816 459.954 435.568 455.435 435.568C450.916 435.568 446.115 436.336 441.031 437.871C436.135 439.407 431.24 441.326 426.344 443.63C421.449 445.741 416.836 447.949 412.505 450.252C408.363 452.363 404.785 454.091 401.772 455.434V383.455H562.478V455.434C560.972 454.283 558.336 452.555 554.57 450.252C550.992 447.757 546.85 445.357 542.143 443.054C537.435 440.559 532.352 438.447 526.891 436.72C521.619 434.992 516.535 434.129 511.64 434.129C505.426 434.129 500.531 435.568 496.953 438.447C493.564 441.135 491.022 444.59 489.327 448.812C487.633 453.035 486.597 457.642 486.221 462.632C485.844 467.623 485.656 472.422 485.656 477.028C485.656 488.161 486.785 499.102 489.045 509.851C491.493 520.408 494.694 530.869 498.648 541.234C502.79 551.407 507.497 561.484 512.769 571.465C518.23 581.254 523.879 590.948 529.716 600.545H446.397Z" fill="#3300FF"/>
<path d="M581.081 600.545C587.107 583.654 591.814 565.707 595.203 546.704C598.592 527.51 600.287 507.931 600.287 487.969C600.287 470.118 598.687 452.363 595.486 434.704C592.285 416.853 587.389 399.77 580.799 383.455C589.837 382.111 598.31 381.248 606.218 380.864C614.315 380.288 620.811 380 625.706 380C635.686 380 644.159 380.864 651.125 382.591C658.092 384.127 663.741 386.43 668.071 389.501C672.59 392.38 675.791 395.931 677.674 400.154C679.745 404.185 680.781 408.6 680.781 413.398C680.781 418.773 679.651 424.435 677.392 430.386C675.321 436.336 672.402 442.382 668.636 448.524C664.871 454.667 660.352 460.809 655.079 466.951C649.996 473.093 644.347 478.948 638.133 484.514C643.029 482.403 647.642 480.963 651.973 480.195C656.303 479.236 660.634 478.756 664.965 478.756C672.873 478.756 680.499 479.62 687.842 481.347C695.374 482.883 703.376 483.65 711.849 483.65C716.556 483.65 720.322 483.075 723.146 481.923C725.971 480.579 728.042 478.756 729.36 476.452C730.866 473.957 731.808 470.982 732.184 467.527C732.749 463.88 733.032 459.849 733.032 455.434C733.032 443.918 730.301 431.921 724.841 419.445C719.569 406.776 712.32 394.78 703.094 383.455H771.725C765.7 400.154 760.993 418.005 757.604 437.008C754.403 456.01 752.802 475.397 752.802 495.167C752.802 513.21 754.308 531.157 757.321 549.008C760.522 566.859 765.418 584.038 772.008 600.545H685.3C677.392 589.412 673.438 578.279 673.438 567.147C673.438 561.004 674.473 555.054 676.544 549.296C678.616 543.537 681.346 537.971 684.735 532.596C688.313 527.222 692.361 522.135 696.88 517.337C701.399 512.346 706.012 507.644 710.719 503.229C707.895 502.077 703.941 500.734 698.857 499.198C693.961 497.47 688.689 495.935 683.041 494.591C677.58 493.248 672.214 492.096 666.942 491.136C661.67 490.177 657.433 489.697 654.232 489.697C642.558 489.697 633.708 493.44 627.683 500.925C621.846 508.411 618.928 517.625 618.928 528.566C618.928 539.89 621.752 551.983 627.401 564.843C633.049 577.512 640.487 589.412 649.713 600.545H581.081Z" fill="#3300FF"/>
<path d="M742.295 600.545C745.119 592.483 748.32 584.134 751.897 575.496C755.475 566.667 759.052 557.645 762.63 548.432C766.208 539.027 769.597 529.525 772.798 519.928C776.187 510.331 779.105 500.734 781.553 491.136C784.942 477.316 786.637 463.112 786.637 448.524C786.637 435.472 785.319 423.188 782.683 411.671C780.047 400.154 776.281 390.749 771.385 383.455H894.527C894.527 404.761 895.186 425.107 896.504 444.494C898.011 463.88 900.458 482.499 903.848 500.35C907.425 518.201 912.133 535.476 917.97 552.175C923.995 568.682 931.432 584.805 940.282 600.545H842.842C837.005 590.756 832.768 581.638 830.132 573.193C827.684 564.555 826.46 556.398 826.46 548.72C826.46 539.314 827.967 530.581 830.979 522.519C834.18 514.458 838.04 507.068 842.559 500.35C847.266 493.44 852.35 487.105 857.811 481.347C863.271 475.589 868.261 470.406 872.78 465.799C877.487 461.001 881.347 456.682 884.36 452.843C887.561 448.812 889.161 445.261 889.161 442.19C889.161 438.927 887.843 436.816 885.207 435.856C882.759 434.896 880.217 434.416 877.581 434.416C873.251 434.416 868.073 435.28 862.047 437.008C856.022 438.543 849.714 440.943 843.124 444.206C836.722 447.469 830.32 451.596 823.919 456.586C817.517 461.577 811.774 467.527 806.69 474.437C801.606 481.155 797.464 488.833 794.263 497.47C791.25 505.916 789.744 515.417 789.744 525.974C789.744 536.531 791.627 548.048 795.393 560.524C799.158 572.809 805.466 586.149 814.316 600.545H742.295Z" fill="#3300FF"/>
<path d="M936.919 600.545C933.153 592.675 930.423 585.093 928.729 577.799C927.034 570.506 926.187 563.404 926.187 556.494C926.187 544.401 928.164 533.076 932.118 522.519C936.072 511.962 940.402 502.269 945.11 493.44C950.005 484.418 954.43 476.356 958.384 469.254C962.338 461.961 964.315 455.722 964.315 450.54C964.315 445.549 962.338 441.806 958.384 439.311C954.618 436.816 950.476 435.568 945.957 435.568C941.438 435.568 936.637 436.336 931.553 437.871C926.657 439.407 921.762 441.326 916.866 443.63C911.971 445.741 907.358 447.949 903.027 450.252C898.885 452.363 895.307 454.091 892.294 455.434V383.455H1053V455.434C1051.49 454.283 1048.86 452.555 1045.09 450.252C1041.51 447.757 1037.37 445.357 1032.66 443.054C1027.96 440.559 1022.87 438.447 1017.41 436.72C1012.14 434.992 1007.06 434.129 1002.16 434.129C995.948 434.129 991.053 435.568 987.475 438.447C984.086 441.135 981.544 444.59 979.849 448.812C978.155 453.035 977.119 457.642 976.742 462.632C976.366 467.623 976.178 472.422 976.178 477.028C976.178 488.161 977.307 499.102 979.567 509.851C982.015 520.408 985.216 530.869 989.17 541.234C993.312 551.407 998.019 561.484 1003.29 571.465C1008.75 581.254 1014.4 590.948 1020.24 600.545H936.919Z" fill="#3300FF"/>
<path d="M258.919 72.976V70.456L266.311 63.868C266.887 63.356 267.287 62.872 267.511 62.416C267.735 61.96 267.847 61.52 267.847 61.096C267.847 60.52 267.723 60.008 267.475 59.56C267.227 59.104 266.883 58.744 266.443 58.48C266.011 58.216 265.511 58.084 264.943 58.084C264.343 58.084 263.811 58.224 263.347 58.504C262.891 58.776 262.535 59.14 262.279 59.596C262.023 60.052 261.903 60.544 261.919 61.072H258.943C258.943 59.92 259.199 58.916 259.711 58.06C260.231 57.204 260.943 56.54 261.847 56.068C262.759 55.596 263.811 55.36 265.003 55.36C266.107 55.36 267.099 55.608 267.979 56.104C268.859 56.592 269.551 57.272 270.055 58.144C270.559 59.008 270.811 60.004 270.811 61.132C270.811 61.956 270.699 62.648 270.475 63.208C270.251 63.768 269.915 64.284 269.467 64.756C269.027 65.228 268.479 65.752 267.823 66.328L262.579 70.972L262.315 70.252H270.811V72.976H258.919ZM274.176 73V70.036H277.14V73H274.176ZM286.637 73.36C285.493 73.36 284.477 73.128 283.589 72.664C282.701 72.2 282.005 71.556 281.501 70.732C280.997 69.908 280.745 68.964 280.745 67.9C280.745 66.948 280.965 66.064 281.405 65.248C281.845 64.432 282.489 63.78 283.337 63.292L283.277 64.216C282.613 63.712 282.097 63.132 281.729 62.476C281.369 61.812 281.189 61.068 281.189 60.244C281.189 59.252 281.421 58.392 281.885 57.664C282.357 56.936 283.001 56.372 283.817 55.972C284.633 55.564 285.573 55.36 286.637 55.36C287.701 55.36 288.641 55.564 289.457 55.972C290.281 56.372 290.925 56.936 291.389 57.664C291.861 58.392 292.097 59.252 292.097 60.244C292.097 61.068 291.921 61.808 291.569 62.464C291.225 63.12 290.701 63.712 289.997 64.24L289.985 63.304C290.817 63.776 291.453 64.424 291.893 65.248C292.341 66.064 292.565 66.948 292.565 67.9C292.565 68.964 292.309 69.908 291.797 70.732C291.293 71.556 290.593 72.2 289.697 72.664C288.809 73.128 287.789 73.36 286.637 73.36ZM286.637 70.636C287.485 70.636 288.173 70.404 288.701 69.94C289.237 69.476 289.505 68.796 289.505 67.9C289.505 67.004 289.241 66.324 288.713 65.86C288.185 65.388 287.493 65.152 286.637 65.152C285.789 65.152 285.105 65.388 284.585 65.86C284.065 66.324 283.805 67.004 283.805 67.9C283.805 68.796 284.065 69.476 284.585 69.94C285.105 70.404 285.789 70.636 286.637 70.636ZM286.637 62.404C287.349 62.404 287.925 62.228 288.365 61.876C288.813 61.516 289.037 60.972 289.037 60.244C289.037 59.516 288.813 58.976 288.365 58.624C287.925 58.264 287.349 58.084 286.637 58.084C285.933 58.084 285.357 58.264 284.909 58.624C284.469 58.976 284.249 59.516 284.249 60.244C284.249 60.972 284.469 61.516 284.909 61.876C285.357 62.228 285.933 62.404 286.637 62.404ZM286.679 127.324C285.815 127.324 284.999 127.156 284.231 126.82C283.463 126.484 282.795 126.008 282.227 125.392C281.667 124.776 281.263 124.048 281.015 123.208L283.811 122.452C284.011 123.14 284.375 123.672 284.903 124.048C285.439 124.416 286.027 124.596 286.667 124.588C287.235 124.588 287.743 124.456 288.191 124.192C288.639 123.928 288.991 123.572 289.247 123.124C289.503 122.668 289.631 122.16 289.631 121.6C289.631 120.744 289.355 120.028 288.803 119.452C288.251 118.876 287.539 118.588 286.667 118.588C286.403 118.588 286.143 118.624 285.887 118.696C285.639 118.768 285.399 118.868 285.167 118.996L283.847 116.716L289.655 111.748L289.907 112.444H281.687V109.72H292.283V112.456L287.615 116.944L287.591 116.092C288.639 116.164 289.531 116.456 290.267 116.968C291.011 117.48 291.579 118.14 291.971 118.948C292.371 119.756 292.571 120.64 292.571 121.6C292.571 122.688 292.303 123.664 291.767 124.528C291.239 125.392 290.527 126.076 289.631 126.58C288.743 127.076 287.759 127.324 286.679 127.324ZM286.679 181.324C285.815 181.324 284.999 181.156 284.231 180.82C283.463 180.484 282.795 180.008 282.227 179.392C281.667 178.776 281.263 178.048 281.015 177.208L283.811 176.452C284.011 177.14 284.375 177.672 284.903 178.048C285.439 178.416 286.027 178.596 286.667 178.588C287.235 178.588 287.743 178.456 288.191 178.192C288.639 177.928 288.991 177.572 289.247 177.124C289.503 176.668 289.631 176.16 289.631 175.6C289.631 174.744 289.355 174.028 288.803 173.452C288.251 172.876 287.539 172.588 286.667 172.588C286.403 172.588 286.143 172.624 285.887 172.696C285.639 172.768 285.399 172.868 285.167 172.996L283.847 170.716L289.655 165.748L289.907 166.444H281.687V163.72H292.283V166.456L287.615 170.944L287.591 170.092C288.639 170.164 289.531 170.456 290.267 170.968C291.011 171.48 291.579 172.14 291.971 172.948C292.371 173.756 292.571 174.64 292.571 175.6C292.571 176.688 292.303 177.664 291.767 178.528C291.239 179.392 290.527 180.076 289.631 180.58C288.743 181.076 287.759 181.324 286.679 181.324ZM265.093 235.324C264.229 235.324 263.413 235.156 262.645 234.82C261.877 234.484 261.209 234.008 260.641 233.392C260.081 232.776 259.677 232.048 259.429 231.208L262.225 230.452C262.425 231.14 262.789 231.672 263.317 232.048C263.853 232.416 264.441 232.596 265.081 232.588C265.649 232.588 266.157 232.456 266.605 232.192C267.053 231.928 267.405 231.572 267.661 231.124C267.917 230.668 268.045 230.16 268.045 229.6C268.045 228.744 267.769 228.028 267.217 227.452C266.665 226.876 265.953 226.588 265.081 226.588C264.817 226.588 264.557 226.624 264.301 226.696C264.053 226.768 263.813 226.868 263.581 226.996L262.261 224.716L268.069 219.748L268.321 220.444H260.101V217.72H270.697V220.456L266.029 224.944L266.005 224.092C267.053 224.164 267.945 224.456 268.681 224.968C269.425 225.48 269.993 226.14 270.385 226.948C270.785 227.756 270.985 228.64 270.985 229.6C270.985 230.688 270.717 231.664 270.181 232.528C269.653 233.392 268.941 234.076 268.045 234.58C267.157 235.076 266.173 235.324 265.093 235.324ZM274.574 235V232.036H277.538V235H274.574ZM280.903 234.976V232.456L288.295 225.868C288.871 225.356 289.271 224.872 289.495 224.416C289.719 223.96 289.831 223.52 289.831 223.096C289.831 222.52 289.707 222.008 289.459 221.56C289.211 221.104 288.867 220.744 288.427 220.48C287.995 220.216 287.495 220.084 286.927 220.084C286.327 220.084 285.795 220.224 285.331 220.504C284.875 220.776 284.519 221.14 284.263 221.596C284.007 222.052 283.887 222.544 283.903 223.072H280.927C280.927 221.92 281.183 220.916 281.695 220.06C282.215 219.204 282.927 218.54 283.831 218.068C284.743 217.596 285.795 217.36 286.987 217.36C288.091 217.36 289.083 217.608 289.963 218.104C290.843 218.592 291.535 219.272 292.039 220.144C292.543 221.008 292.795 222.004 292.795 223.132C292.795 223.956 292.683 224.648 292.459 225.208C292.235 225.768 291.899 226.284 291.451 226.756C291.011 227.228 290.463 227.752 289.807 228.328L284.563 232.972L284.299 232.252H292.795V234.976H280.903Z" fill="#3300FF"/>
<path d="M59.358 73.54C57.39 73.54 55.662 73.114 54.174 72.262C52.686 71.41 51.522 70.228 50.682 68.716C49.854 67.204 49.44 65.464 49.44 63.496C49.44 61.372 49.848 59.53 50.664 57.97C51.48 56.398 52.614 55.18 54.066 54.316C55.518 53.452 57.198 53.02 59.106 53.02C61.122 53.02 62.832 53.494 64.236 54.442C65.652 55.378 66.702 56.704 67.386 58.42C68.07 60.136 68.328 62.158 68.16 64.486H63.858V62.902C63.846 60.79 63.474 59.248 62.742 58.276C62.01 57.304 60.858 56.818 59.286 56.818C57.51 56.818 56.19 57.37 55.326 58.474C54.462 59.566 54.03 61.168 54.03 63.28C54.03 65.248 54.462 66.772 55.326 67.852C56.19 68.932 57.45 69.472 59.106 69.472C60.174 69.472 61.092 69.238 61.86 68.77C62.64 68.29 63.24 67.6 63.66 66.7L67.944 67.996C67.2 69.748 66.048 71.11 64.488 72.082C62.94 73.054 61.23 73.54 59.358 73.54ZM52.662 64.486V61.21H66.036V64.486H52.662ZM79.6823 73.54C77.2823 73.54 75.3323 73 73.8323 71.92C72.3323 70.84 71.4203 69.322 71.0963 67.366L75.5243 66.682C75.7523 67.642 76.2563 68.398 77.0363 68.95C77.8163 69.502 78.8003 69.778 79.9883 69.778C81.0323 69.778 81.8363 69.574 82.4003 69.166C82.9763 68.746 83.2643 68.176 83.2643 67.456C83.2643 67.012 83.1563 66.658 82.9403 66.394C82.7363 66.118 82.2803 65.854 81.5723 65.602C80.8643 65.35 79.7783 65.032 78.3143 64.648C76.6823 64.216 75.3863 63.754 74.4263 63.262C73.4663 62.758 72.7763 62.164 72.3563 61.48C71.9363 60.796 71.7263 59.968 71.7263 58.996C71.7263 57.784 72.0443 56.728 72.6803 55.828C73.3163 54.928 74.2043 54.238 75.3443 53.758C76.4843 53.266 77.8283 53.02 79.3763 53.02C80.8883 53.02 82.2263 53.254 83.3903 53.722C84.5663 54.19 85.5143 54.856 86.2343 55.72C86.9543 56.584 87.3983 57.598 87.5663 58.762L83.1383 59.554C83.0303 58.726 82.6523 58.072 82.0043 57.592C81.3683 57.112 80.5163 56.842 79.4483 56.782C78.4283 56.722 77.6063 56.878 76.9823 57.25C76.3583 57.61 76.0463 58.12 76.0463 58.78C76.0463 59.152 76.1723 59.47 76.4243 59.734C76.6763 59.998 77.1803 60.262 77.9363 60.526C78.7043 60.79 79.8443 61.114 81.3563 61.498C82.9043 61.894 84.1403 62.35 85.0643 62.866C86.0003 63.37 86.6723 63.976 87.0803 64.684C87.5003 65.392 87.7103 66.25 87.7103 67.258C87.7103 69.214 86.9963 70.75 85.5683 71.866C84.1523 72.982 82.1903 73.54 79.6823 73.54ZM100.995 73.54C99.0988 73.54 97.5088 73.09 96.2248 72.19C94.9408 71.29 93.9748 70.066 93.3268 68.518C92.6788 66.958 92.3548 65.212 92.3548 63.28C92.3548 61.324 92.6788 59.572 93.3268 58.024C93.9748 56.476 94.9228 55.258 96.1708 54.37C97.4308 53.47 98.9848 53.02 100.833 53.02C102.669 53.02 104.259 53.47 105.603 54.37C106.959 55.258 108.009 56.476 108.753 58.024C109.497 59.56 109.869 61.312 109.869 63.28C109.869 65.224 109.503 66.97 108.771 68.518C108.039 70.066 107.007 71.29 105.675 72.19C104.343 73.09 102.783 73.54 100.995 73.54ZM91.6168 81.64V53.56H95.4508V67.204H95.9908V81.64H91.6168ZM100.329 69.652C101.457 69.652 102.387 69.37 103.119 68.806C103.851 68.242 104.391 67.48 104.739 66.52C105.099 65.548 105.279 64.468 105.279 63.28C105.279 62.104 105.099 61.036 104.739 60.076C104.379 59.104 103.821 58.336 103.065 57.772C102.309 57.196 101.349 56.908 100.185 56.908C99.0808 56.908 98.1808 57.178 97.4848 57.718C96.7888 58.246 96.2728 58.99 95.9368 59.95C95.6128 60.898 95.4508 62.008 95.4508 63.28C95.4508 64.54 95.6128 65.65 95.9368 66.61C96.2728 67.57 96.7948 68.32 97.5028 68.86C98.2228 69.388 99.1648 69.652 100.329 69.652ZM113.836 73V53.56H117.67V58.294L117.202 57.682C117.442 57.034 117.76 56.446 118.156 55.918C118.564 55.378 119.05 54.934 119.614 54.586C120.094 54.262 120.622 54.01 121.198 53.83C121.786 53.638 122.386 53.524 122.998 53.488C123.61 53.44 124.204 53.464 124.78 53.56V57.61C124.204 57.442 123.538 57.388 122.782 57.448C122.038 57.508 121.366 57.718 120.766 58.078C120.166 58.402 119.674 58.816 119.29 59.32C118.918 59.824 118.642 60.4 118.462 61.048C118.282 61.684 118.192 62.374 118.192 63.118V73H113.836ZM136.702 73.54C134.734 73.54 133.006 73.114 131.518 72.262C130.03 71.41 128.866 70.228 128.026 68.716C127.198 67.204 126.784 65.464 126.784 63.496C126.784 61.372 127.192 59.53 128.008 57.97C128.824 56.398 129.958 55.18 131.41 54.316C132.862 53.452 134.542 53.02 136.45 53.02C138.466 53.02 140.176 53.494 141.58 54.442C142.996 55.378 144.046 56.704 144.73 58.42C145.414 60.136 145.672 62.158 145.504 64.486H141.202V62.902C141.19 60.79 140.818 59.248 140.086 58.276C139.354 57.304 138.202 56.818 136.63 56.818C134.854 56.818 133.534 57.37 132.67 58.474C131.806 59.566 131.374 61.168 131.374 63.28C131.374 65.248 131.806 66.772 132.67 67.852C133.534 68.932 134.794 69.472 136.45 69.472C137.518 69.472 138.436 69.238 139.204 68.77C139.984 68.29 140.584 67.6 141.004 66.7L145.288 67.996C144.544 69.748 143.392 71.11 141.832 72.082C140.284 73.054 138.574 73.54 136.702 73.54ZM130.006 64.486V61.21H143.38V64.486H130.006ZM157.026 73.54C154.626 73.54 152.676 73 151.176 71.92C149.676 70.84 148.764 69.322 148.44 67.366L152.868 66.682C153.096 67.642 153.6 68.398 154.38 68.95C155.16 69.502 156.144 69.778 157.332 69.778C158.376 69.778 159.18 69.574 159.744 69.166C160.32 68.746 160.608 68.176 160.608 67.456C160.608 67.012 160.5 66.658 160.284 66.394C160.08 66.118 159.624 65.854 158.916 65.602C158.208 65.35 157.122 65.032 155.658 64.648C154.026 64.216 152.73 63.754 151.77 63.262C150.81 62.758 150.12 62.164 149.7 61.48C149.28 60.796 149.07 59.968 149.07 58.996C149.07 57.784 149.388 56.728 150.024 55.828C150.66 54.928 151.548 54.238 152.688 53.758C153.828 53.266 155.172 53.02 156.72 53.02C158.232 53.02 159.57 53.254 160.734 53.722C161.91 54.19 162.858 54.856 163.578 55.72C164.298 56.584 164.742 57.598 164.91 58.762L160.482 59.554C160.374 58.726 159.996 58.072 159.348 57.592C158.712 57.112 157.86 56.842 156.792 56.782C155.772 56.722 154.95 56.878 154.326 57.25C153.702 57.61 153.39 58.12 153.39 58.78C153.39 59.152 153.516 59.47 153.768 59.734C154.02 59.998 154.524 60.262 155.28 60.526C156.048 60.79 157.188 61.114 158.7 61.498C160.248 61.894 161.484 62.35 162.408 62.866C163.344 63.37 164.016 63.976 164.424 64.684C164.844 65.392 165.054 66.25 165.054 67.258C165.054 69.214 164.34 70.75 162.912 71.866C161.496 72.982 159.534 73.54 157.026 73.54ZM176.503 73.54C174.103 73.54 172.153 73 170.653 71.92C169.153 70.84 168.241 69.322 167.917 67.366L172.345 66.682C172.573 67.642 173.077 68.398 173.857 68.95C174.637 69.502 175.621 69.778 176.809 69.778C177.853 69.778 178.657 69.574 179.221 69.166C179.797 68.746 180.085 68.176 180.085 67.456C180.085 67.012 179.977 66.658 179.761 66.394C179.557 66.118 179.101 65.854 178.393 65.602C177.685 65.35 176.599 65.032 175.135 64.648C173.503 64.216 172.207 63.754 171.247 63.262C170.287 62.758 169.597 62.164 169.177 61.48C168.757 60.796 168.547 59.968 168.547 58.996C168.547 57.784 168.865 56.728 169.501 55.828C170.137 54.928 171.025 54.238 172.165 53.758C173.305 53.266 174.649 53.02 176.197 53.02C177.709 53.02 179.047 53.254 180.211 53.722C181.387 54.19 182.335 54.856 183.055 55.72C183.775 56.584 184.219 57.598 184.387 58.762L179.959 59.554C179.851 58.726 179.473 58.072 178.825 57.592C178.189 57.112 177.337 56.842 176.269 56.782C175.249 56.722 174.427 56.878 173.803 57.25C173.179 57.61 172.867 58.12 172.867 58.78C172.867 59.152 172.993 59.47 173.245 59.734C173.497 59.998 174.001 60.262 174.757 60.526C175.525 60.79 176.665 61.114 178.177 61.498C179.725 61.894 180.961 62.35 181.885 62.866C182.821 63.37 183.493 63.976 183.901 64.684C184.321 65.392 184.531 66.25 184.531 67.258C184.531 69.214 183.817 70.75 182.389 71.866C180.973 72.982 179.011 73.54 176.503 73.54ZM197.059 73.54C195.115 73.54 193.417 73.102 191.965 72.226C190.513 71.35 189.385 70.144 188.581 68.608C187.789 67.06 187.393 65.284 187.393 63.28C187.393 61.24 187.801 59.452 188.617 57.916C189.433 56.38 190.567 55.18 192.019 54.316C193.471 53.452 195.151 53.02 197.059 53.02C199.015 53.02 200.719 53.458 202.171 54.334C203.623 55.21 204.751 56.422 205.555 57.97C206.359 59.506 206.761 61.276 206.761 63.28C206.761 65.296 206.353 67.078 205.537 68.626C204.733 70.162 203.605 71.368 202.153 72.244C200.701 73.108 199.003 73.54 197.059 73.54ZM197.059 69.472C198.787 69.472 200.071 68.896 200.911 67.744C201.751 66.592 202.171 65.104 202.171 63.28C202.171 61.396 201.745 59.896 200.893 58.78C200.041 57.652 198.763 57.088 197.059 57.088C195.895 57.088 194.935 57.352 194.179 57.88C193.435 58.396 192.883 59.122 192.523 60.058C192.163 60.982 191.983 62.056 191.983 63.28C191.983 65.164 192.409 66.67 193.261 67.798C194.125 68.914 195.391 69.472 197.059 69.472ZM58.962 127.54C56.958 127.54 55.248 127.096 53.832 126.208C52.416 125.308 51.33 124.084 50.574 122.536C49.83 120.988 49.452 119.236 49.44 117.28C49.452 115.288 49.842 113.524 50.61 111.988C51.39 110.44 52.494 109.228 53.922 108.352C55.35 107.464 57.048 107.02 59.016 107.02C61.224 107.02 63.09 107.578 64.614 108.694C66.15 109.798 67.152 111.31 67.62 113.23L63.3 114.4C62.964 113.356 62.406 112.546 61.626 111.97C60.846 111.382 59.958 111.088 58.962 111.088C57.834 111.088 56.904 111.358 56.172 111.898C55.44 112.426 54.9 113.158 54.552 114.094C54.204 115.03 54.03 116.092 54.03 117.28C54.03 119.128 54.444 120.622 55.272 121.762C56.1 122.902 57.33 123.472 58.962 123.472C60.114 123.472 61.02 123.208 61.68 122.68C62.352 122.152 62.856 121.39 63.192 120.394L67.62 121.384C67.02 123.364 65.97 124.888 64.47 125.956C62.97 127.012 61.134 127.54 58.962 127.54ZM79.2857 127.54C77.3417 127.54 75.6437 127.102 74.1917 126.226C72.7397 125.35 71.6117 124.144 70.8077 122.608C70.0157 121.06 69.6197 119.284 69.6197 117.28C69.6197 115.24 70.0277 113.452 70.8437 111.916C71.6597 110.38 72.7937 109.18 74.2457 108.316C75.6977 107.452 77.3777 107.02 79.2857 107.02C81.2417 107.02 82.9457 107.458 84.3977 108.334C85.8497 109.21 86.9777 110.422 87.7817 111.97C88.5857 113.506 88.9877 115.276 88.9877 117.28C88.9877 119.296 88.5797 121.078 87.7637 122.626C86.9597 124.162 85.8317 125.368 84.3797 126.244C82.9277 127.108 81.2297 127.54 79.2857 127.54ZM79.2857 123.472C81.0137 123.472 82.2977 122.896 83.1377 121.744C83.9777 120.592 84.3977 119.104 84.3977 117.28C84.3977 115.396 83.9717 113.896 83.1197 112.78C82.2677 111.652 80.9897 111.088 79.2857 111.088C78.1217 111.088 77.1617 111.352 76.4057 111.88C75.6617 112.396 75.1097 113.122 74.7497 114.058C74.3897 114.982 74.2097 116.056 74.2097 117.28C74.2097 119.164 74.6357 120.67 75.4877 121.798C76.3517 122.914 77.6177 123.472 79.2857 123.472ZM92.9536 127V107.56H96.7876V112.294L96.3196 111.682C96.5596 111.034 96.8776 110.446 97.2736 109.918C97.6816 109.378 98.1676 108.934 98.7316 108.586C99.2116 108.262 99.7396 108.01 100.316 107.83C100.904 107.638 101.504 107.524 102.116 107.488C102.728 107.44 103.322 107.464 103.898 107.56V111.61C103.322 111.442 102.656 111.388 101.9 111.448C101.156 111.508 100.484 111.718 99.8836 112.078C99.2836 112.402 98.7916 112.816 98.4076 113.32C98.0356 113.824 97.7596 114.4 97.5796 115.048C97.3996 115.684 97.3096 116.374 97.3096 117.118V127H92.9536ZM118.727 127C117.443 127.24 116.183 127.342 114.947 127.306C113.723 127.282 112.625 127.06 111.653 126.64C110.681 126.208 109.943 125.53 109.438 124.606C108.995 123.766 108.761 122.908 108.737 122.032C108.713 121.156 108.701 120.166 108.701 119.062V102.16H113.021V118.81C113.021 119.59 113.027 120.274 113.039 120.862C113.063 121.45 113.189 121.93 113.417 122.302C113.849 123.022 114.539 123.424 115.487 123.508C116.435 123.592 117.515 123.544 118.727 123.364V127ZM105.173 110.962V107.56H118.727V110.962H105.173ZM128.343 127.54C126.939 127.54 125.751 127.276 124.779 126.748C123.807 126.208 123.069 125.494 122.565 124.606C122.073 123.718 121.827 122.74 121.827 121.672C121.827 120.736 121.983 119.896 122.295 119.152C122.607 118.396 123.087 117.748 123.735 117.208C124.383 116.656 125.223 116.206 126.255 115.858C127.035 115.606 127.947 115.378 128.991 115.174C130.047 114.97 131.187 114.784 132.411 114.616C133.647 114.436 134.937 114.244 136.281 114.04L134.733 114.922C134.745 113.578 134.445 112.588 133.833 111.952C133.221 111.316 132.189 110.998 130.737 110.998C129.861 110.998 129.015 111.202 128.199 111.61C127.383 112.018 126.813 112.72 126.489 113.716L122.529 112.474C123.009 110.83 123.921 109.51 125.265 108.514C126.621 107.518 128.445 107.02 130.737 107.02C132.465 107.02 133.983 107.302 135.291 107.866C136.611 108.43 137.589 109.354 138.225 110.638C138.573 111.322 138.783 112.024 138.855 112.744C138.927 113.452 138.963 114.226 138.963 115.066V127H135.165V122.788L135.795 123.472C134.919 124.876 133.893 125.908 132.717 126.568C131.553 127.216 130.095 127.54 128.343 127.54ZM129.207 124.084C130.191 124.084 131.031 123.91 131.727 123.562C132.423 123.214 132.975 122.788 133.383 122.284C133.803 121.78 134.085 121.306 134.229 120.862C134.457 120.31 134.583 119.68 134.607 118.972C134.643 118.252 134.661 117.67 134.661 117.226L135.993 117.622C134.685 117.826 133.563 118.006 132.627 118.162C131.691 118.318 130.887 118.468 130.215 118.612C129.543 118.744 128.949 118.894 128.433 119.062C127.929 119.242 127.503 119.452 127.155 119.692C126.807 119.932 126.537 120.208 126.345 120.52C126.165 120.832 126.075 121.198 126.075 121.618C126.075 122.098 126.195 122.524 126.435 122.896C126.675 123.256 127.023 123.544 127.479 123.76C127.947 123.976 128.523 124.084 129.207 124.084ZM151.443 127.54C149.655 127.54 148.095 127.09 146.763 126.19C145.431 125.29 144.399 124.066 143.667 122.518C142.935 120.97 142.569 119.224 142.569 117.28C142.569 115.312 142.935 113.56 143.667 112.024C144.411 110.476 145.461 109.258 146.817 108.37C148.173 107.47 149.769 107.02 151.605 107.02C153.453 107.02 155.001 107.47 156.249 108.37C157.509 109.258 158.463 110.476 159.111 112.024C159.759 113.572 160.083 115.324 160.083 117.28C160.083 119.212 159.759 120.958 159.111 122.518C158.463 124.066 157.497 125.29 156.213 126.19C154.929 127.09 153.339 127.54 151.443 127.54ZM152.109 123.652C153.273 123.652 154.209 123.388 154.917 122.86C155.637 122.32 156.159 121.57 156.483 120.61C156.819 119.65 156.987 118.54 156.987 117.28C156.987 116.008 156.819 114.898 156.483 113.95C156.159 112.99 155.649 112.246 154.953 111.718C154.257 111.178 153.357 110.908 152.253 110.908C151.089 110.908 150.129 111.196 149.373 111.772C148.617 112.336 148.059 113.104 147.699 114.076C147.339 115.036 147.159 116.104 147.159 117.28C147.159 118.468 147.333 119.548 147.681 120.52C148.041 121.48 148.587 122.242 149.319 122.806C150.051 123.37 150.981 123.652 152.109 123.652ZM156.987 127V113.356H156.447V101.08H160.821V127H156.987ZM174.454 127.54C172.51 127.54 170.812 127.102 169.36 126.226C167.908 125.35 166.78 124.144 165.976 122.608C165.184 121.06 164.788 119.284 164.788 117.28C164.788 115.24 165.196 113.452 166.012 111.916C166.828 110.38 167.962 109.18 169.414 108.316C170.866 107.452 172.546 107.02 174.454 107.02C176.41 107.02 178.114 107.458 179.566 108.334C181.018 109.21 182.146 110.422 182.95 111.97C183.754 113.506 184.156 115.276 184.156 117.28C184.156 119.296 183.748 121.078 182.932 122.626C182.128 124.162 181 125.368 179.548 126.244C178.096 127.108 176.398 127.54 174.454 127.54ZM174.454 123.472C176.182 123.472 177.466 122.896 178.306 121.744C179.146 120.592 179.566 119.104 179.566 117.28C179.566 115.396 179.14 113.896 178.288 112.78C177.436 111.652 176.158 111.088 174.454 111.088C173.29 111.088 172.33 111.352 171.574 111.88C170.83 112.396 170.278 113.122 169.918 114.058C169.558 114.982 169.378 116.056 169.378 117.28C169.378 119.164 169.804 120.67 170.656 121.798C171.52 122.914 172.786 123.472 174.454 123.472ZM50.88 181V154.54H55.218V181H50.88ZM69.1958 181.54C67.2518 181.54 65.5538 181.102 64.1018 180.226C62.6498 179.35 61.5218 178.144 60.7178 176.608C59.9258 175.06 59.5298 173.284 59.5298 171.28C59.5298 169.24 59.9378 167.452 60.7538 165.916C61.5698 164.38 62.7038 163.18 64.1558 162.316C65.6078 161.452 67.2878 161.02 69.1958 161.02C71.1518 161.02 72.8558 161.458 74.3078 162.334C75.7598 163.21 76.8878 164.422 77.6918 165.97C78.4958 167.506 78.8978 169.276 78.8978 171.28C78.8978 173.296 78.4898 175.078 77.6738 176.626C76.8698 178.162 75.7418 179.368 74.2898 180.244C72.8378 181.108 71.1398 181.54 69.1958 181.54ZM69.1958 177.472C70.9238 177.472 72.2078 176.896 73.0478 175.744C73.8878 174.592 74.3078 173.104 74.3078 171.28C74.3078 169.396 73.8818 167.896 73.0298 166.78C72.1778 165.652 70.8998 165.088 69.1958 165.088C68.0318 165.088 67.0718 165.352 66.3158 165.88C65.5718 166.396 65.0198 167.122 64.6598 168.058C64.2998 168.982 64.1198 170.056 64.1198 171.28C64.1198 173.164 64.5458 174.67 65.3978 175.798C66.2618 176.914 67.5278 177.472 69.1958 177.472ZM96.3098 181V171.64C96.3098 171.028 96.2678 170.35 96.1838 169.606C96.0998 168.862 95.9018 168.148 95.5898 167.464C95.2898 166.768 94.8338 166.198 94.2218 165.754C93.6218 165.31 92.8058 165.088 91.7738 165.088C91.2218 165.088 90.6758 165.178 90.1358 165.358C89.5958 165.538 89.1038 165.85 88.6598 166.294C88.2278 166.726 87.8798 167.326 87.6158 168.094C87.3518 168.85 87.2198 169.822 87.2198 171.01L84.6458 169.912C84.6458 168.256 84.9638 166.756 85.5998 165.412C86.2478 164.068 87.1958 163 88.4438 162.208C89.6918 161.404 91.2278 161.002 93.0518 161.002C94.4918 161.002 95.6798 161.242 96.6158 161.722C97.5518 162.202 98.2958 162.814 98.8477 163.558C99.3997 164.302 99.8078 165.094 100.072 165.934C100.336 166.774 100.504 167.572 100.576 168.328C100.66 169.072 100.702 169.678 100.702 170.146V181H96.3098ZM82.8278 181V161.56H86.6978V167.59H87.2198V181H82.8278ZM113.571 190.18C112.491 190.18 111.453 190.012 110.457 189.676C109.473 189.34 108.585 188.854 107.793 188.218C107.001 187.594 106.353 186.838 105.849 185.95L109.845 183.97C110.217 184.678 110.739 185.2 111.411 185.536C112.095 185.884 112.821 186.058 113.589 186.058C114.489 186.058 115.293 185.896 116.001 185.572C116.709 185.26 117.255 184.792 117.639 184.168C118.035 183.556 118.221 182.788 118.197 181.864V176.338H118.737V161.56H122.535V181.936C122.535 182.428 122.511 182.896 122.463 183.34C122.427 183.796 122.361 184.24 122.265 184.672C121.977 185.932 121.425 186.964 120.609 187.768C119.793 188.584 118.779 189.19 117.567 189.586C116.367 189.982 115.035 190.18 113.571 190.18ZM113.193 181.54C111.405 181.54 109.845 181.09 108.513 180.19C107.181 179.29 106.149 178.066 105.417 176.518C104.685 174.97 104.319 173.224 104.319 171.28C104.319 169.312 104.685 167.56 105.417 166.024C106.161 164.476 107.211 163.258 108.567 162.37C109.923 161.47 111.519 161.02 113.355 161.02C115.203 161.02 116.751 161.47 117.999 162.37C119.259 163.258 120.213 164.476 120.861 166.024C121.509 167.572 121.833 169.324 121.833 171.28C121.833 173.212 121.509 174.958 120.861 176.518C120.213 178.066 119.247 179.29 117.963 180.19C116.679 181.09 115.089 181.54 113.193 181.54ZM113.859 177.652C115.023 177.652 115.959 177.388 116.667 176.86C117.387 176.32 117.909 175.57 118.233 174.61C118.569 173.65 118.737 172.54 118.737 171.28C118.737 170.008 118.569 168.898 118.233 167.95C117.909 166.99 117.399 166.246 116.703 165.718C116.007 165.178 115.107 164.908 114.003 164.908C112.839 164.908 111.879 165.196 111.123 165.772C110.367 166.336 109.809 167.104 109.449 168.076C109.089 169.036 108.909 170.104 108.909 171.28C108.909 172.468 109.083 173.548 109.431 174.52C109.791 175.48 110.337 176.242 111.069 176.806C111.801 177.37 112.731 177.652 113.859 177.652ZM144.132 181.54C142.236 181.54 140.646 181.09 139.362 180.19C138.078 179.29 137.112 178.066 136.464 176.518C135.816 174.958 135.492 173.212 135.492 171.28C135.492 169.324 135.816 167.572 136.464 166.024C137.112 164.476 138.06 163.258 139.308 162.37C140.568 161.47 142.122 161.02 143.97 161.02C145.806 161.02 147.396 161.47 148.74 162.37C150.096 163.258 151.146 164.476 151.89 166.024C152.634 167.56 153.006 169.312 153.006 171.28C153.006 173.224 152.64 174.97 151.908 176.518C151.176 178.066 150.144 179.29 148.812 180.19C147.48 181.09 145.92 181.54 144.132 181.54ZM134.754 181V155.08H139.128V167.356H138.588V181H134.754ZM143.466 177.652C144.594 177.652 145.524 177.37 146.256 176.806C146.988 176.242 147.528 175.48 147.876 174.52C148.236 173.548 148.416 172.468 148.416 171.28C148.416 170.104 148.236 169.036 147.876 168.076C147.516 167.104 146.958 166.336 146.202 165.772C145.446 165.196 144.486 164.908 143.322 164.908C142.218 164.908 141.318 165.178 140.622 165.718C139.926 166.246 139.41 166.99 139.074 167.95C138.75 168.898 138.588 170.008 138.588 171.28C138.588 172.54 138.75 173.65 139.074 174.61C139.41 175.57 139.932 176.32 140.64 176.86C141.36 177.388 142.302 177.652 143.466 177.652ZM157.333 181V154.54H161.671V181H157.333ZM172.499 181.54C171.095 181.54 169.907 181.276 168.935 180.748C167.963 180.208 167.225 179.494 166.721 178.606C166.229 177.718 165.983 176.74 165.983 175.672C165.983 174.736 166.139 173.896 166.451 173.152C166.763 172.396 167.243 171.748 167.891 171.208C168.539 170.656 169.379 170.206 170.411 169.858C171.191 169.606 172.103 169.378 173.147 169.174C174.203 168.97 175.343 168.784 176.567 168.616C177.803 168.436 179.093 168.244 180.437 168.04L178.889 168.922C178.901 167.578 178.601 166.588 177.989 165.952C177.377 165.316 176.345 164.998 174.893 164.998C174.017 164.998 173.171 165.202 172.355 165.61C171.539 166.018 170.969 166.72 170.645 167.716L166.685 166.474C167.165 164.83 168.077 163.51 169.421 162.514C170.777 161.518 172.601 161.02 174.893 161.02C176.621 161.02 178.139 161.302 179.447 161.866C180.767 162.43 181.745 163.354 182.381 164.638C182.729 165.322 182.939 166.024 183.011 166.744C183.083 167.452 183.119 168.226 183.119 169.066V181H179.321V176.788L179.951 177.472C179.075 178.876 178.049 179.908 176.873 180.568C175.709 181.216 174.251 181.54 172.499 181.54ZM173.363 178.084C174.347 178.084 175.187 177.91 175.883 177.562C176.579 177.214 177.131 176.788 177.539 176.284C177.959 175.78 178.241 175.306 178.385 174.862C178.613 174.31 178.739 173.68 178.763 172.972C178.799 172.252 178.817 171.67 178.817 171.226L180.149 171.622C178.841 171.826 177.719 172.006 176.783 172.162C175.847 172.318 175.043 172.468 174.371 172.612C173.699 172.744 173.105 172.894 172.589 173.062C172.085 173.242 171.659 173.452 171.311 173.692C170.963 173.932 170.693 174.208 170.501 174.52C170.321 174.832 170.231 175.198 170.231 175.618C170.231 176.098 170.351 176.524 170.591 176.896C170.831 177.256 171.179 177.544 171.635 177.76C172.103 177.976 172.679 178.084 173.363 178.084ZM196.247 181.54C194.243 181.54 192.533 181.096 191.117 180.208C189.701 179.308 188.615 178.084 187.859 176.536C187.115 174.988 186.737 173.236 186.725 171.28C186.737 169.288 187.127 167.524 187.895 165.988C188.675 164.44 189.779 163.228 191.207 162.352C192.635 161.464 194.333 161.02 196.301 161.02C198.509 161.02 200.375 161.578 201.899 162.694C203.435 163.798 204.437 165.31 204.905 167.23L200.585 168.4C200.249 167.356 199.691 166.546 198.911 165.97C198.131 165.382 197.243 165.088 196.247 165.088C195.119 165.088 194.189 165.358 193.457 165.898C192.725 166.426 192.185 167.158 191.837 168.094C191.489 169.03 191.315 170.092 191.315 171.28C191.315 173.128 191.729 174.622 192.557 175.762C193.385 176.902 194.615 177.472 196.247 177.472C197.399 177.472 198.305 177.208 198.965 176.68C199.637 176.152 200.141 175.39 200.477 174.394L204.905 175.384C204.305 177.364 203.255 178.888 201.755 179.956C200.255 181.012 198.419 181.54 196.247 181.54ZM208.476 181L208.512 155.08H212.904V170.92L220.014 161.56H225.432L217.89 171.28L226.08 181H220.338L212.904 171.64V181H208.476ZM52.212 235V215.254C52.212 214.762 52.23 214.222 52.266 213.634C52.302 213.034 52.404 212.44 52.572 211.852C52.74 211.264 53.046 210.73 53.49 210.25C54.042 209.638 54.636 209.218 55.272 208.99C55.92 208.75 56.556 208.618 57.18 208.594C57.804 208.558 58.35 208.54 58.818 208.54H61.248V212.068H58.998C58.17 212.068 57.552 212.278 57.144 212.698C56.748 213.106 56.55 213.646 56.55 214.318V235H52.212ZM49.08 218.962V215.56H61.248V218.962H49.08ZM65.028 212.608V208.63H69.366V212.608H65.028ZM65.028 235V215.56H69.366V235H65.028ZM75.1378 235V208.54H79.4758V235H75.1378ZM96.2617 235C94.9777 235.24 93.7177 235.342 92.4817 235.306C91.2577 235.282 90.1597 235.06 89.1877 234.64C88.2157 234.208 87.4777 233.53 86.9737 232.606C86.5297 231.766 86.2957 230.908 86.2717 230.032C86.2477 229.156 86.2357 228.166 86.2357 227.062V210.16H90.5557V226.81C90.5557 227.59 90.5617 228.274 90.5737 228.862C90.5977 229.45 90.7237 229.93 90.9517 230.302C91.3837 231.022 92.0737 231.424 93.0217 231.508C93.9697 231.592 95.0497 231.544 96.2617 231.364V235ZM82.7077 218.962V215.56H96.2617V218.962H82.7077ZM108.296 235.54C106.328 235.54 104.6 235.114 103.112 234.262C101.624 233.41 100.46 232.228 99.6195 230.716C98.7915 229.204 98.3775 227.464 98.3775 225.496C98.3775 223.372 98.7855 221.53 99.6015 219.97C100.418 218.398 101.552 217.18 103.004 216.316C104.456 215.452 106.136 215.02 108.044 215.02C110.06 215.02 111.77 215.494 113.174 216.442C114.59 217.378 115.64 218.704 116.324 220.42C117.008 222.136 117.266 224.158 117.098 226.486H112.796V224.902C112.784 222.79 112.412 221.248 111.68 220.276C110.948 219.304 109.796 218.818 108.224 218.818C106.448 218.818 105.128 219.37 104.264 220.474C103.4 221.566 102.968 223.168 102.968 225.28C102.968 227.248 103.4 228.772 104.264 229.852C105.128 230.932 106.388 231.472 108.044 231.472C109.112 231.472 110.03 231.238 110.798 230.77C111.578 230.29 112.178 229.6 112.598 228.7L116.882 229.996C116.138 231.748 114.986 233.11 113.426 234.082C111.878 235.054 110.168 235.54 108.296 235.54ZM101.6 226.486V223.21H114.974V226.486H101.6ZM121.114 235V215.56H124.948V220.294L124.48 219.682C124.72 219.034 125.038 218.446 125.434 217.918C125.842 217.378 126.328 216.934 126.892 216.586C127.372 216.262 127.9 216.01 128.476 215.83C129.064 215.638 129.664 215.524 130.276 215.488C130.888 215.44 131.482 215.464 132.058 215.56V219.61C131.482 219.442 130.816 219.388 130.06 219.448C129.316 219.508 128.644 219.718 128.044 220.078C127.444 220.402 126.952 220.816 126.568 221.32C126.196 221.824 125.92 222.4 125.74 223.048C125.56 223.684 125.47 224.374 125.47 225.118V235H121.114Z" fill="#3300FF"/>
<path d="M594.254 73V70.144H586.598V67.444L592.13 55.72H595.43L589.898 67.444H594.254V62.944H597.182V67.444H598.802V70.144H597.182V73H594.254ZM570.483 127.324C569.619 127.324 568.803 127.156 568.035 126.82C567.267 126.484 566.599 126.008 566.031 125.392C565.471 124.776 565.067 124.048 564.819 123.208L567.615 122.452C567.815 123.14 568.179 123.672 568.707 124.048C569.243 124.416 569.831 124.596 570.471 124.588C571.039 124.588 571.547 124.456 571.995 124.192C572.443 123.928 572.795 123.572 573.051 123.124C573.307 122.668 573.435 122.16 573.435 121.6C573.435 120.744 573.159 120.028 572.607 119.452C572.055 118.876 571.343 118.588 570.471 118.588C570.207 118.588 569.947 118.624 569.691 118.696C569.443 118.768 569.203 118.868 568.971 118.996L567.651 116.716L573.459 111.748L573.711 112.444H565.491V109.72H576.087V112.456L571.419 116.944L571.395 116.092C572.443 116.164 573.335 116.456 574.071 116.968C574.815 117.48 575.383 118.14 575.775 118.948C576.175 119.756 576.375 120.64 576.375 121.6C576.375 122.688 576.107 123.664 575.571 124.528C575.043 125.392 574.331 126.076 573.435 126.58C572.547 127.076 571.563 127.324 570.483 127.324ZM579.965 127V124.036H582.929V127H579.965ZM592.75 127.36C591.622 127.36 590.606 127.096 589.702 126.568C588.806 126.032 588.094 125.292 587.566 124.348C587.038 123.404 586.774 122.32 586.774 121.096V115.84C586.774 114.528 587.034 113.388 587.554 112.42C588.082 111.452 588.818 110.704 589.762 110.176C590.714 109.648 591.818 109.384 593.074 109.384C593.946 109.384 594.774 109.532 595.558 109.828C596.342 110.116 597.038 110.58 597.646 111.22L595.558 113.248C595.254 112.888 594.882 112.604 594.442 112.396C594.01 112.188 593.554 112.084 593.074 112.084C592.402 112.084 591.814 112.244 591.31 112.564C590.806 112.876 590.414 113.288 590.134 113.8C589.862 114.312 589.726 114.86 589.726 115.444V118.312L589.198 117.736C589.694 117.16 590.29 116.712 590.986 116.392C591.682 116.064 592.41 115.9 593.17 115.9C594.258 115.9 595.218 116.148 596.05 116.644C596.882 117.132 597.538 117.804 598.018 118.66C598.498 119.508 598.738 120.476 598.738 121.564C598.738 122.644 598.462 123.624 597.91 124.504C597.366 125.376 596.642 126.072 595.738 126.592C594.834 127.104 593.838 127.36 592.75 127.36ZM592.75 124.588C593.31 124.588 593.822 124.456 594.286 124.192C594.75 123.92 595.118 123.556 595.39 123.1C595.67 122.636 595.81 122.124 595.81 121.564C595.81 121.004 595.674 120.492 595.402 120.028C595.13 119.564 594.762 119.196 594.298 118.924C593.842 118.644 593.334 118.504 592.774 118.504C592.214 118.504 591.702 118.644 591.238 118.924C590.774 119.196 590.406 119.564 590.134 120.028C589.862 120.492 589.726 121.004 589.726 121.564C589.726 122.108 589.858 122.612 590.122 123.076C590.394 123.532 590.758 123.9 591.214 124.18C591.678 124.452 592.19 124.588 592.75 124.588ZM564.919 180.976V178.456L572.311 171.868C572.887 171.356 573.287 170.872 573.511 170.416C573.735 169.96 573.847 169.52 573.847 169.096C573.847 168.52 573.723 168.008 573.475 167.56C573.227 167.104 572.883 166.744 572.443 166.48C572.011 166.216 571.511 166.084 570.943 166.084C570.343 166.084 569.811 166.224 569.347 166.504C568.891 166.776 568.535 167.14 568.279 167.596C568.023 168.052 567.903 168.544 567.919 169.072H564.943C564.943 167.92 565.199 166.916 565.711 166.06C566.231 165.204 566.943 164.54 567.847 164.068C568.759 163.596 569.811 163.36 571.003 163.36C572.107 163.36 573.099 163.608 573.979 164.104C574.859 164.592 575.551 165.272 576.055 166.144C576.559 167.008 576.811 168.004 576.811 169.132C576.811 169.956 576.699 170.648 576.475 171.208C576.251 171.768 575.915 172.284 575.467 172.756C575.027 173.228 574.479 173.752 573.823 174.328L568.579 178.972L568.315 178.252H576.811V180.976H564.919ZM580.176 181V178.036H583.14V181H580.176ZM592.637 181.36C591.493 181.36 590.477 181.128 589.589 180.664C588.701 180.2 588.005 179.556 587.501 178.732C586.997 177.908 586.745 176.964 586.745 175.9C586.745 174.948 586.965 174.064 587.405 173.248C587.845 172.432 588.489 171.78 589.337 171.292L589.277 172.216C588.613 171.712 588.097 171.132 587.729 170.476C587.369 169.812 587.189 169.068 587.189 168.244C587.189 167.252 587.421 166.392 587.885 165.664C588.357 164.936 589.001 164.372 589.817 163.972C590.633 163.564 591.573 163.36 592.637 163.36C593.701 163.36 594.641 163.564 595.457 163.972C596.281 164.372 596.925 164.936 597.389 165.664C597.861 166.392 598.097 167.252 598.097 168.244C598.097 169.068 597.921 169.808 597.569 170.464C597.225 171.12 596.701 171.712 595.997 172.24L595.985 171.304C596.817 171.776 597.453 172.424 597.893 173.248C598.341 174.064 598.565 174.948 598.565 175.9C598.565 176.964 598.309 177.908 597.797 178.732C597.293 179.556 596.593 180.2 595.697 180.664C594.809 181.128 593.789 181.36 592.637 181.36ZM592.637 178.636C593.485 178.636 594.173 178.404 594.701 177.94C595.237 177.476 595.505 176.796 595.505 175.9C595.505 175.004 595.241 174.324 594.713 173.86C594.185 173.388 593.493 173.152 592.637 173.152C591.789 173.152 591.105 173.388 590.585 173.86C590.065 174.324 589.805 175.004 589.805 175.9C589.805 176.796 590.065 177.476 590.585 177.94C591.105 178.404 591.789 178.636 592.637 178.636ZM592.637 170.404C593.349 170.404 593.925 170.228 594.365 169.876C594.813 169.516 595.037 168.972 595.037 168.244C595.037 167.516 594.813 166.976 594.365 166.624C593.925 166.264 593.349 166.084 592.637 166.084C591.933 166.084 591.357 166.264 590.909 166.624C590.469 166.976 590.249 167.516 590.249 168.244C590.249 168.972 590.469 169.516 590.909 169.876C591.357 170.228 591.933 170.404 592.637 170.404Z" fill="#3300FF"/>
<path d="M405.866 73V61.192C405.866 59.86 405.536 58.822 404.876 58.078C404.216 57.322 403.322 56.944 402.194 56.944C401.498 56.944 400.874 57.106 400.322 57.43C399.77 57.742 399.332 58.21 399.008 58.834C398.684 59.446 398.522 60.178 398.522 61.03L396.596 59.896C396.584 58.552 396.884 57.37 397.496 56.35C398.12 55.318 398.96 54.514 400.016 53.938C401.072 53.362 402.248 53.074 403.544 53.074C405.692 53.074 407.336 53.722 408.476 55.018C409.628 56.302 410.204 57.994 410.204 60.094V73H405.866ZM382.484 73V53.56H386.318V59.59H386.858V73H382.484ZM394.202 73V61.246C394.202 59.89 393.872 58.834 393.212 58.078C392.552 57.322 391.652 56.944 390.512 56.944C389.408 56.944 388.52 57.322 387.848 58.078C387.188 58.834 386.858 59.818 386.858 61.03L384.914 59.734C384.914 58.474 385.226 57.34 385.85 56.332C386.474 55.324 387.314 54.532 388.37 53.956C389.438 53.368 390.632 53.074 391.952 53.074C393.404 53.074 394.616 53.386 395.588 54.01C396.572 54.622 397.304 55.462 397.784 56.53C398.276 57.586 398.522 58.78 398.522 60.112V73H394.202ZM420.335 73.54C418.931 73.54 417.743 73.276 416.771 72.748C415.799 72.208 415.061 71.494 414.557 70.606C414.065 69.718 413.819 68.74 413.819 67.672C413.819 66.736 413.975 65.896 414.287 65.152C414.599 64.396 415.079 63.748 415.727 63.208C416.375 62.656 417.215 62.206 418.247 61.858C419.027 61.606 419.939 61.378 420.983 61.174C422.039 60.97 423.179 60.784 424.403 60.616C425.639 60.436 426.929 60.244 428.273 60.04L426.725 60.922C426.737 59.578 426.437 58.588 425.825 57.952C425.213 57.316 424.181 56.998 422.729 56.998C421.853 56.998 421.007 57.202 420.191 57.61C419.375 58.018 418.805 58.72 418.481 59.716L414.521 58.474C415.001 56.83 415.913 55.51 417.257 54.514C418.613 53.518 420.437 53.02 422.729 53.02C424.457 53.02 425.975 53.302 427.283 53.866C428.603 54.43 429.581 55.354 430.217 56.638C430.565 57.322 430.775 58.024 430.847 58.744C430.919 59.452 430.955 60.226 430.955 61.066V73H427.157V68.788L427.787 69.472C426.911 70.876 425.885 71.908 424.709 72.568C423.545 73.216 422.087 73.54 420.335 73.54ZM421.199 70.084C422.183 70.084 423.023 69.91 423.719 69.562C424.415 69.214 424.967 68.788 425.375 68.284C425.795 67.78 426.077 67.306 426.221 66.862C426.449 66.31 426.575 65.68 426.599 64.972C426.635 64.252 426.653 63.67 426.653 63.226L427.985 63.622C426.677 63.826 425.555 64.006 424.619 64.162C423.683 64.318 422.879 64.468 422.207 64.612C421.535 64.744 420.941 64.894 420.425 65.062C419.921 65.242 419.495 65.452 419.147 65.692C418.799 65.932 418.529 66.208 418.337 66.52C418.157 66.832 418.067 67.198 418.067 67.618C418.067 68.098 418.187 68.524 418.427 68.896C418.667 69.256 419.015 69.544 419.471 69.76C419.939 69.976 420.515 70.084 421.199 70.084ZM447.035 73C445.751 73.24 444.491 73.342 443.255 73.306C442.031 73.282 440.933 73.06 439.961 72.64C438.989 72.208 438.251 71.53 437.747 70.606C437.303 69.766 437.069 68.908 437.045 68.032C437.021 67.156 437.009 66.166 437.009 65.062V48.16H441.329V64.81C441.329 65.59 441.335 66.274 441.347 66.862C441.371 67.45 441.497 67.93 441.725 68.302C442.157 69.022 442.847 69.424 443.795 69.508C444.743 69.592 445.823 69.544 447.035 69.364V73ZM433.481 56.962V53.56H447.035V56.962H433.481ZM458.673 73.54C456.669 73.54 454.959 73.096 453.543 72.208C452.127 71.308 451.041 70.084 450.285 68.536C449.541 66.988 449.163 65.236 449.151 63.28C449.163 61.288 449.553 59.524 450.321 57.988C451.101 56.44 452.205 55.228 453.633 54.352C455.061 53.464 456.759 53.02 458.727 53.02C460.935 53.02 462.801 53.578 464.325 54.694C465.861 55.798 466.863 57.31 467.331 59.23L463.011 60.4C462.675 59.356 462.117 58.546 461.337 57.97C460.557 57.382 459.669 57.088 458.673 57.088C457.545 57.088 456.615 57.358 455.883 57.898C455.151 58.426 454.611 59.158 454.263 60.094C453.915 61.03 453.741 62.092 453.741 63.28C453.741 65.128 454.155 66.622 454.983 67.762C455.811 68.902 457.041 69.472 458.673 69.472C459.825 69.472 460.731 69.208 461.391 68.68C462.063 68.152 462.567 67.39 462.903 66.394L467.331 67.384C466.731 69.364 465.681 70.888 464.181 71.956C462.681 73.012 460.845 73.54 458.673 73.54ZM484.384 73V63.64C484.384 63.028 484.342 62.35 484.258 61.606C484.174 60.862 483.976 60.148 483.664 59.464C483.364 58.768 482.908 58.198 482.296 57.754C481.696 57.31 480.88 57.088 479.848 57.088C479.296 57.088 478.75 57.178 478.21 57.358C477.67 57.538 477.178 57.85 476.734 58.294C476.302 58.726 475.954 59.326 475.69 60.094C475.426 60.85 475.294 61.822 475.294 63.01L472.72 61.912C472.72 60.256 473.038 58.756 473.674 57.412C474.322 56.068 475.27 55 476.518 54.208C477.766 53.404 479.302 53.002 481.126 53.002C482.566 53.002 483.754 53.242 484.69 53.722C485.626 54.202 486.37 54.814 486.922 55.558C487.474 56.302 487.882 57.094 488.146 57.934C488.41 58.774 488.578 59.572 488.65 60.328C488.734 61.072 488.776 61.678 488.776 62.146V73H484.384ZM470.902 73V47.08H474.772V60.724H475.294V73H470.902ZM498.909 73.54C497.505 73.54 496.317 73.276 495.345 72.748C494.373 72.208 493.635 71.494 493.131 70.606C492.639 69.718 492.393 68.74 492.393 67.672C492.393 66.736 492.549 65.896 492.861 65.152C493.173 64.396 493.653 63.748 494.301 63.208C494.949 62.656 495.789 62.206 496.821 61.858C497.601 61.606 498.513 61.378 499.557 61.174C500.613 60.97 501.753 60.784 502.977 60.616C504.213 60.436 505.503 60.244 506.847 60.04L505.299 60.922C505.311 59.578 505.011 58.588 504.399 57.952C503.787 57.316 502.755 56.998 501.303 56.998C500.427 56.998 499.581 57.202 498.765 57.61C497.949 58.018 497.379 58.72 497.055 59.716L493.095 58.474C493.575 56.83 494.487 55.51 495.831 54.514C497.187 53.518 499.011 53.02 501.303 53.02C503.031 53.02 504.549 53.302 505.857 53.866C507.177 54.43 508.155 55.354 508.791 56.638C509.139 57.322 509.349 58.024 509.421 58.744C509.493 59.452 509.529 60.226 509.529 61.066V73H505.731V68.788L506.361 69.472C505.485 70.876 504.459 71.908 503.283 72.568C502.119 73.216 500.661 73.54 498.909 73.54ZM499.773 70.084C500.757 70.084 501.597 69.91 502.293 69.562C502.989 69.214 503.541 68.788 503.949 68.284C504.369 67.78 504.651 67.306 504.795 66.862C505.023 66.31 505.149 65.68 505.173 64.972C505.209 64.252 505.227 63.67 505.227 63.226L506.559 63.622C505.251 63.826 504.129 64.006 503.193 64.162C502.257 64.318 501.453 64.468 500.781 64.612C500.109 64.744 499.515 64.894 498.999 65.062C498.495 65.242 498.069 65.452 497.721 65.692C497.373 65.932 497.103 66.208 496.911 66.52C496.731 66.832 496.641 67.198 496.641 67.618C496.641 68.098 496.761 68.524 497.001 68.896C497.241 69.256 497.589 69.544 498.045 69.76C498.513 69.976 499.089 70.084 499.773 70.084ZM390.962 127.54C388.958 127.54 387.248 127.096 385.832 126.208C384.416 125.308 383.33 124.084 382.574 122.536C381.83 120.988 381.452 119.236 381.44 117.28C381.452 115.288 381.842 113.524 382.61 111.988C383.39 110.44 384.494 109.228 385.922 108.352C387.35 107.464 389.048 107.02 391.016 107.02C393.224 107.02 395.09 107.578 396.614 108.694C398.15 109.798 399.152 111.31 399.62 113.23L395.3 114.4C394.964 113.356 394.406 112.546 393.626 111.97C392.846 111.382 391.958 111.088 390.962 111.088C389.834 111.088 388.904 111.358 388.172 111.898C387.44 112.426 386.9 113.158 386.552 114.094C386.204 115.03 386.03 116.092 386.03 117.28C386.03 119.128 386.444 120.622 387.272 121.762C388.1 122.902 389.33 123.472 390.962 123.472C392.114 123.472 393.02 123.208 393.68 122.68C394.352 122.152 394.856 121.39 395.192 120.394L399.62 121.384C399.02 123.364 397.97 124.888 396.47 125.956C394.97 127.012 393.134 127.54 390.962 127.54ZM416.673 127V117.64C416.673 117.028 416.631 116.35 416.547 115.606C416.463 114.862 416.265 114.148 415.953 113.464C415.653 112.768 415.197 112.198 414.585 111.754C413.985 111.31 413.169 111.088 412.137 111.088C411.585 111.088 411.039 111.178 410.499 111.358C409.959 111.538 409.467 111.85 409.023 112.294C408.591 112.726 408.243 113.326 407.979 114.094C407.715 114.85 407.583 115.822 407.583 117.01L405.009 115.912C405.009 114.256 405.327 112.756 405.963 111.412C406.611 110.068 407.559 109 408.807 108.208C410.055 107.404 411.591 107.002 413.415 107.002C414.855 107.002 416.043 107.242 416.979 107.722C417.915 108.202 418.659 108.814 419.211 109.558C419.763 110.302 420.171 111.094 420.435 111.934C420.699 112.774 420.867 113.572 420.939 114.328C421.023 115.072 421.065 115.678 421.065 116.146V127H416.673ZM403.191 127V101.08H407.061V114.724H407.583V127H403.191ZM431.198 127.54C429.794 127.54 428.606 127.276 427.634 126.748C426.662 126.208 425.924 125.494 425.42 124.606C424.928 123.718 424.682 122.74 424.682 121.672C424.682 120.736 424.838 119.896 425.15 119.152C425.462 118.396 425.942 117.748 426.59 117.208C427.238 116.656 428.078 116.206 429.11 115.858C429.89 115.606 430.802 115.378 431.846 115.174C432.902 114.97 434.042 114.784 435.266 114.616C436.502 114.436 437.792 114.244 439.136 114.04L437.588 114.922C437.6 113.578 437.3 112.588 436.688 111.952C436.076 111.316 435.044 110.998 433.592 110.998C432.716 110.998 431.87 111.202 431.054 111.61C430.238 112.018 429.668 112.72 429.344 113.716L425.384 112.474C425.864 110.83 426.776 109.51 428.12 108.514C429.476 107.518 431.3 107.02 433.592 107.02C435.32 107.02 436.838 107.302 438.146 107.866C439.466 108.43 440.444 109.354 441.08 110.638C441.428 111.322 441.638 112.024 441.71 112.744C441.782 113.452 441.818 114.226 441.818 115.066V127H438.02V122.788L438.65 123.472C437.774 124.876 436.748 125.908 435.572 126.568C434.408 127.216 432.95 127.54 431.198 127.54ZM432.062 124.084C433.046 124.084 433.886 123.91 434.582 123.562C435.278 123.214 435.83 122.788 436.238 122.284C436.658 121.78 436.94 121.306 437.084 120.862C437.312 120.31 437.438 119.68 437.462 118.972C437.498 118.252 437.516 117.67 437.516 117.226L438.848 117.622C437.54 117.826 436.418 118.006 435.482 118.162C434.546 118.318 433.742 118.468 433.07 118.612C432.398 118.744 431.804 118.894 431.288 119.062C430.784 119.242 430.358 119.452 430.01 119.692C429.662 119.932 429.392 120.208 429.2 120.52C429.02 120.832 428.93 121.198 428.93 121.618C428.93 122.098 429.05 122.524 429.29 122.896C429.53 123.256 429.878 123.544 430.334 123.76C430.802 123.976 431.378 124.084 432.062 124.084ZM446.864 104.608V100.63H451.202V104.608H446.864ZM446.864 127V107.56H451.202V127H446.864ZM391.358 181.54C389.39 181.54 387.662 181.114 386.174 180.262C384.686 179.41 383.522 178.228 382.682 176.716C381.854 175.204 381.44 173.464 381.44 171.496C381.44 169.372 381.848 167.53 382.664 165.97C383.48 164.398 384.614 163.18 386.066 162.316C387.518 161.452 389.198 161.02 391.106 161.02C393.122 161.02 394.832 161.494 396.236 162.442C397.652 163.378 398.702 164.704 399.386 166.42C400.07 168.136 400.328 170.158 400.16 172.486H395.858V170.902C395.846 168.79 395.474 167.248 394.742 166.276C394.01 165.304 392.858 164.818 391.286 164.818C389.51 164.818 388.19 165.37 387.326 166.474C386.462 167.566 386.03 169.168 386.03 171.28C386.03 173.248 386.462 174.772 387.326 175.852C388.19 176.932 389.45 177.472 391.106 177.472C392.174 177.472 393.092 177.238 393.86 176.77C394.64 176.29 395.24 175.6 395.66 174.7L399.944 175.996C399.2 177.748 398.048 179.11 396.488 180.082C394.94 181.054 393.23 181.54 391.358 181.54ZM384.662 172.486V169.21H398.036V172.486H384.662ZM409.261 181.54C407.857 181.54 406.669 181.276 405.697 180.748C404.725 180.208 403.987 179.494 403.483 178.606C402.991 177.718 402.745 176.74 402.745 175.672C402.745 174.736 402.901 173.896 403.213 173.152C403.525 172.396 404.005 171.748 404.653 171.208C405.301 170.656 406.141 170.206 407.173 169.858C407.953 169.606 408.865 169.378 409.909 169.174C410.965 168.97 412.105 168.784 413.329 168.616C414.565 168.436 415.855 168.244 417.199 168.04L415.651 168.922C415.663 167.578 415.363 166.588 414.751 165.952C414.139 165.316 413.107 164.998 411.655 164.998C410.779 164.998 409.933 165.202 409.117 165.61C408.301 166.018 407.731 166.72 407.407 167.716L403.447 166.474C403.927 164.83 404.839 163.51 406.183 162.514C407.539 161.518 409.363 161.02 411.655 161.02C413.383 161.02 414.901 161.302 416.209 161.866C417.529 162.43 418.507 163.354 419.143 164.638C419.491 165.322 419.701 166.024 419.773 166.744C419.845 167.452 419.881 168.226 419.881 169.066V181H416.083V176.788L416.713 177.472C415.837 178.876 414.811 179.908 413.635 180.568C412.471 181.216 411.013 181.54 409.261 181.54ZM410.125 178.084C411.109 178.084 411.949 177.91 412.645 177.562C413.341 177.214 413.893 176.788 414.301 176.284C414.721 175.78 415.003 175.306 415.147 174.862C415.375 174.31 415.501 173.68 415.525 172.972C415.561 172.252 415.579 171.67 415.579 171.226L416.911 171.622C415.603 171.826 414.481 172.006 413.545 172.162C412.609 172.318 411.805 172.468 411.133 172.612C410.461 172.744 409.867 172.894 409.351 173.062C408.847 173.242 408.421 173.452 408.073 173.692C407.725 173.932 407.455 174.208 407.263 174.52C407.083 174.832 406.993 175.198 406.993 175.618C406.993 176.098 407.113 176.524 407.353 176.896C407.593 177.256 407.941 177.544 408.397 177.76C408.865 177.976 409.441 178.084 410.125 178.084ZM424.567 181V161.56H428.401V166.294L427.933 165.682C428.173 165.034 428.491 164.446 428.887 163.918C429.295 163.378 429.781 162.934 430.345 162.586C430.825 162.262 431.353 162.01 431.929 161.83C432.517 161.638 433.117 161.524 433.729 161.488C434.341 161.44 434.935 161.464 435.511 161.56V165.61C434.935 165.442 434.269 165.388 433.513 165.448C432.769 165.508 432.097 165.718 431.497 166.078C430.897 166.402 430.405 166.816 430.021 167.32C429.649 167.824 429.373 168.4 429.193 169.048C429.013 169.684 428.923 170.374 428.923 171.118V181H424.567ZM439.306 181V154.54H443.644V181H439.306ZM464.415 190.18C463.335 190.18 462.297 190.012 461.301 189.676C460.317 189.34 459.429 188.854 458.637 188.218C457.845 187.594 457.197 186.838 456.693 185.95L460.689 183.97C461.061 184.678 461.583 185.2 462.255 185.536C462.939 185.884 463.665 186.058 464.433 186.058C465.333 186.058 466.137 185.896 466.845 185.572C467.553 185.26 468.099 184.792 468.483 184.168C468.879 183.556 469.065 182.788 469.041 181.864V176.338H469.581V161.56H473.379V181.936C473.379 182.428 473.355 182.896 473.307 183.34C473.271 183.796 473.205 184.24 473.109 184.672C472.821 185.932 472.269 186.964 471.453 187.768C470.637 188.584 469.623 189.19 468.411 189.586C467.211 189.982 465.879 190.18 464.415 190.18ZM464.037 181.54C462.249 181.54 460.689 181.09 459.357 180.19C458.025 179.29 456.993 178.066 456.261 176.518C455.529 174.97 455.163 173.224 455.163 171.28C455.163 169.312 455.529 167.56 456.261 166.024C457.005 164.476 458.055 163.258 459.411 162.37C460.767 161.47 462.363 161.02 464.199 161.02C466.047 161.02 467.595 161.47 468.843 162.37C470.103 163.258 471.057 164.476 471.705 166.024C472.353 167.572 472.677 169.324 472.677 171.28C472.677 173.212 472.353 174.958 471.705 176.518C471.057 178.066 470.091 179.29 468.807 180.19C467.523 181.09 465.933 181.54 464.037 181.54ZM464.703 177.652C465.867 177.652 466.803 177.388 467.511 176.86C468.231 176.32 468.753 175.57 469.077 174.61C469.413 173.65 469.581 172.54 469.581 171.28C469.581 170.008 469.413 168.898 469.077 167.95C468.753 166.99 468.243 166.246 467.547 165.718C466.851 165.178 465.951 164.908 464.847 164.908C463.683 164.908 462.723 165.196 461.967 165.772C461.211 166.336 460.653 167.104 460.293 168.076C459.933 169.036 459.753 170.104 459.753 171.28C459.753 172.468 459.927 173.548 460.275 174.52C460.635 175.48 461.181 176.242 461.913 176.806C462.645 177.37 463.575 177.652 464.703 177.652ZM478.426 181V161.56H482.26V166.294L481.792 165.682C482.032 165.034 482.35 164.446 482.746 163.918C483.154 163.378 483.64 162.934 484.204 162.586C484.684 162.262 485.212 162.01 485.788 161.83C486.376 161.638 486.976 161.524 487.588 161.488C488.2 161.44 488.794 161.464 489.37 161.56V165.61C488.794 165.442 488.128 165.388 487.372 165.448C486.628 165.508 485.956 165.718 485.356 166.078C484.756 166.402 484.264 166.816 483.88 167.32C483.508 167.824 483.232 168.4 483.052 169.048C482.872 169.684 482.782 170.374 482.782 171.118V181H478.426ZM501.292 181.54C499.324 181.54 497.596 181.114 496.108 180.262C494.62 179.41 493.456 178.228 492.616 176.716C491.788 175.204 491.374 173.464 491.374 171.496C491.374 169.372 491.782 167.53 492.598 165.97C493.414 164.398 494.548 163.18 496 162.316C497.452 161.452 499.132 161.02 501.04 161.02C503.056 161.02 504.766 161.494 506.17 162.442C507.586 163.378 508.636 164.704 509.32 166.42C510.004 168.136 510.262 170.158 510.094 172.486H505.792V170.902C505.78 168.79 505.408 167.248 504.676 166.276C503.944 165.304 502.792 164.818 501.22 164.818C499.444 164.818 498.124 165.37 497.26 166.474C496.396 167.566 495.964 169.168 495.964 171.28C495.964 173.248 496.396 174.772 497.26 175.852C498.124 176.932 499.384 177.472 501.04 177.472C502.108 177.472 503.026 177.238 503.794 176.77C504.574 176.29 505.174 175.6 505.594 174.7L509.878 175.996C509.134 177.748 507.982 179.11 506.422 180.082C504.874 181.054 503.164 181.54 501.292 181.54ZM494.596 172.486V169.21H507.97V172.486H494.596ZM516.314 189.64L520.058 179.362L520.13 182.386L511.652 161.56H516.17L522.182 176.968H521.03L526.88 161.56H531.218L520.382 189.64H516.314Z" fill="#3300FF"/>
<path d="M992.679 73.324C991.815 73.324 990.999 73.156 990.231 72.82C989.463 72.484 988.795 72.008 988.227 71.392C987.667 70.776 987.263 70.048 987.015 69.208L989.811 68.452C990.011 69.14 990.375 69.672 990.903 70.048C991.439 70.416 992.027 70.596 992.667 70.588C993.235 70.588 993.743 70.456 994.191 70.192C994.639 69.928 994.991 69.572 995.247 69.124C995.503 68.668 995.631 68.16 995.631 67.6C995.631 66.744 995.355 66.028 994.803 65.452C994.251 64.876 993.539 64.588 992.667 64.588C992.403 64.588 992.143 64.624 991.887 64.696C991.639 64.768 991.399 64.868 991.167 64.996L989.847 62.716L995.655 57.748L995.907 58.444H987.687V55.72H998.283V58.456L993.615 62.944L993.591 62.092C994.639 62.164 995.531 62.456 996.267 62.968C997.011 63.48 997.579 64.14 997.971 64.948C998.371 65.756 998.571 66.64 998.571 67.6C998.571 68.688 998.303 69.664 997.767 70.528C997.239 71.392 996.527 72.076 995.631 72.58C994.743 73.076 993.759 73.324 992.679 73.324ZM970.483 127.324C969.619 127.324 968.803 127.156 968.035 126.82C967.267 126.484 966.599 126.008 966.031 125.392C965.471 124.776 965.067 124.048 964.819 123.208L967.615 122.452C967.815 123.14 968.179 123.672 968.707 124.048C969.243 124.416 969.831 124.596 970.471 124.588C971.039 124.588 971.547 124.456 971.995 124.192C972.443 123.928 972.795 123.572 973.051 123.124C973.307 122.668 973.435 122.16 973.435 121.6C973.435 120.744 973.159 120.028 972.607 119.452C972.055 118.876 971.343 118.588 970.471 118.588C970.207 118.588 969.947 118.624 969.691 118.696C969.443 118.768 969.203 118.868 968.971 118.996L967.651 116.716L973.459 111.748L973.711 112.444H965.491V109.72H976.087V112.456L971.419 116.944L971.395 116.092C972.443 116.164 973.335 116.456 974.071 116.968C974.815 117.48 975.383 118.14 975.775 118.948C976.175 119.756 976.375 120.64 976.375 121.6C976.375 122.688 976.107 123.664 975.571 124.528C975.043 125.392 974.331 126.076 973.435 126.58C972.547 127.076 971.563 127.324 970.483 127.324ZM979.965 127V124.036H982.929V127H979.965ZM992.75 127.36C991.622 127.36 990.606 127.096 989.702 126.568C988.806 126.032 988.094 125.292 987.566 124.348C987.038 123.404 986.774 122.32 986.774 121.096V115.84C986.774 114.528 987.034 113.388 987.554 112.42C988.082 111.452 988.818 110.704 989.762 110.176C990.714 109.648 991.818 109.384 993.074 109.384C993.946 109.384 994.774 109.532 995.558 109.828C996.342 110.116 997.038 110.58 997.646 111.22L995.558 113.248C995.254 112.888 994.882 112.604 994.442 112.396C994.01 112.188 993.554 112.084 993.074 112.084C992.402 112.084 991.814 112.244 991.31 112.564C990.806 112.876 990.414 113.288 990.134 113.8C989.862 114.312 989.726 114.86 989.726 115.444V118.312L989.198 117.736C989.694 117.16 990.29 116.712 990.986 116.392C991.682 116.064 992.41 115.9 993.17 115.9C994.258 115.9 995.218 116.148 996.05 116.644C996.882 117.132 997.538 117.804 998.018 118.66C998.498 119.508 998.738 120.476 998.738 121.564C998.738 122.644 998.462 123.624 997.91 124.504C997.366 125.376 996.642 126.072 995.738 126.592C994.834 127.104 993.838 127.36 992.75 127.36ZM992.75 124.588C993.31 124.588 993.822 124.456 994.286 124.192C994.75 123.92 995.118 123.556 995.39 123.1C995.67 122.636 995.81 122.124 995.81 121.564C995.81 121.004 995.674 120.492 995.402 120.028C995.13 119.564 994.762 119.196 994.298 118.924C993.842 118.644 993.334 118.504 992.774 118.504C992.214 118.504 991.702 118.644 991.238 118.924C990.774 119.196 990.406 119.564 990.134 120.028C989.862 120.492 989.726 121.004 989.726 121.564C989.726 122.108 989.858 122.612 990.122 123.076C990.394 123.532 990.758 123.9 991.214 124.18C991.678 124.452 992.19 124.588 992.75 124.588Z" fill="#3300FF"/>
<path d="M695.962 73.54C693.958 73.54 692.248 73.096 690.832 72.208C689.416 71.308 688.33 70.084 687.574 68.536C686.83 66.988 686.452 65.236 686.44 63.28C686.452 61.288 686.842 59.524 687.61 57.988C688.39 56.44 689.494 55.228 690.922 54.352C692.35 53.464 694.048 53.02 696.016 53.02C698.224 53.02 700.09 53.578 701.614 54.694C703.15 55.798 704.152 57.31 704.62 59.23L700.3 60.4C699.964 59.356 699.406 58.546 698.626 57.97C697.846 57.382 696.958 57.088 695.962 57.088C694.834 57.088 693.904 57.358 693.172 57.898C692.44 58.426 691.9 59.158 691.552 60.094C691.204 61.03 691.03 62.092 691.03 63.28C691.03 65.128 691.444 66.622 692.272 67.762C693.1 68.902 694.33 69.472 695.962 69.472C697.114 69.472 698.02 69.208 698.68 68.68C699.352 68.152 699.856 67.39 700.192 66.394L704.62 67.384C704.02 69.364 702.97 70.888 701.47 71.956C699.97 73.012 698.134 73.54 695.962 73.54ZM708.227 73V53.56H712.061V58.294L711.593 57.682C711.833 57.034 712.151 56.446 712.547 55.918C712.955 55.378 713.441 54.934 714.005 54.586C714.485 54.262 715.013 54.01 715.589 53.83C716.177 53.638 716.777 53.524 717.389 53.488C718.001 53.44 718.595 53.464 719.171 53.56V57.61C718.595 57.442 717.929 57.388 717.173 57.448C716.429 57.508 715.757 57.718 715.157 58.078C714.557 58.402 714.065 58.816 713.681 59.32C713.309 59.824 713.033 60.4 712.853 61.048C712.673 61.684 712.583 62.374 712.583 63.118V73H708.227ZM730.84 73.54C728.896 73.54 727.198 73.102 725.746 72.226C724.294 71.35 723.166 70.144 722.362 68.608C721.57 67.06 721.174 65.284 721.174 63.28C721.174 61.24 721.582 59.452 722.398 57.916C723.214 56.38 724.348 55.18 725.8 54.316C727.252 53.452 728.932 53.02 730.84 53.02C732.796 53.02 734.5 53.458 735.952 54.334C737.404 55.21 738.532 56.422 739.336 57.97C740.14 59.506 740.542 61.276 740.542 63.28C740.542 65.296 740.134 67.078 739.318 68.626C738.514 70.162 737.386 71.368 735.934 72.244C734.482 73.108 732.784 73.54 730.84 73.54ZM730.84 69.472C732.568 69.472 733.852 68.896 734.692 67.744C735.532 66.592 735.952 65.104 735.952 63.28C735.952 61.396 735.526 59.896 734.674 58.78C733.822 57.652 732.544 57.088 730.84 57.088C729.676 57.088 728.716 57.352 727.96 57.88C727.216 58.396 726.664 59.122 726.304 60.058C725.944 60.982 725.764 62.056 725.764 63.28C725.764 65.164 726.19 66.67 727.042 67.798C727.906 68.914 729.172 69.472 730.84 69.472ZM744.868 50.608V46.63H749.206V50.608H744.868ZM744.868 73V53.56H749.206V73H744.868ZM762.104 73.54C759.704 73.54 757.754 73 756.254 71.92C754.754 70.84 753.842 69.322 753.518 67.366L757.946 66.682C758.174 67.642 758.678 68.398 759.458 68.95C760.238 69.502 761.222 69.778 762.41 69.778C763.454 69.778 764.258 69.574 764.822 69.166C765.398 68.746 765.686 68.176 765.686 67.456C765.686 67.012 765.578 66.658 765.362 66.394C765.158 66.118 764.702 65.854 763.994 65.602C763.286 65.35 762.2 65.032 760.736 64.648C759.104 64.216 757.808 63.754 756.848 63.262C755.888 62.758 755.198 62.164 754.778 61.48C754.358 60.796 754.148 59.968 754.148 58.996C754.148 57.784 754.466 56.728 755.102 55.828C755.738 54.928 756.626 54.238 757.766 53.758C758.906 53.266 760.25 53.02 761.798 53.02C763.31 53.02 764.648 53.254 765.812 53.722C766.988 54.19 767.936 54.856 768.656 55.72C769.376 56.584 769.82 57.598 769.988 58.762L765.56 59.554C765.452 58.726 765.074 58.072 764.426 57.592C763.79 57.112 762.938 56.842 761.87 56.782C760.85 56.722 760.028 56.878 759.404 57.25C758.78 57.61 758.468 58.12 758.468 58.78C758.468 59.152 758.594 59.47 758.846 59.734C759.098 59.998 759.602 60.262 760.358 60.526C761.126 60.79 762.266 61.114 763.778 61.498C765.326 61.894 766.562 62.35 767.486 62.866C768.422 63.37 769.094 63.976 769.502 64.684C769.922 65.392 770.132 66.25 770.132 67.258C770.132 69.214 769.418 70.75 767.99 71.866C766.574 72.982 764.612 73.54 762.104 73.54ZM781.581 73.54C779.181 73.54 777.231 73 775.731 71.92C774.231 70.84 773.319 69.322 772.995 67.366L777.423 66.682C777.651 67.642 778.155 68.398 778.935 68.95C779.715 69.502 780.699 69.778 781.887 69.778C782.931 69.778 783.735 69.574 784.299 69.166C784.875 68.746 785.163 68.176 785.163 67.456C785.163 67.012 785.055 66.658 784.839 66.394C784.635 66.118 784.179 65.854 783.471 65.602C782.763 65.35 781.677 65.032 780.213 64.648C778.581 64.216 777.285 63.754 776.325 63.262C775.365 62.758 774.675 62.164 774.255 61.48C773.835 60.796 773.625 59.968 773.625 58.996C773.625 57.784 773.943 56.728 774.579 55.828C775.215 54.928 776.103 54.238 777.243 53.758C778.383 53.266 779.727 53.02 781.275 53.02C782.787 53.02 784.125 53.254 785.289 53.722C786.465 54.19 787.413 54.856 788.133 55.72C788.853 56.584 789.297 57.598 789.465 58.762L785.037 59.554C784.929 58.726 784.551 58.072 783.903 57.592C783.267 57.112 782.415 56.842 781.347 56.782C780.327 56.722 779.505 56.878 778.881 57.25C778.257 57.61 777.945 58.12 777.945 58.78C777.945 59.152 778.071 59.47 778.323 59.734C778.575 59.998 779.079 60.262 779.835 60.526C780.603 60.79 781.743 61.114 783.255 61.498C784.803 61.894 786.039 62.35 786.963 62.866C787.899 63.37 788.571 63.976 788.979 64.684C789.399 65.392 789.609 66.25 789.609 67.258C789.609 69.214 788.895 70.75 787.467 71.866C786.051 72.982 784.089 73.54 781.581 73.54ZM798.987 73.54C797.583 73.54 796.395 73.276 795.423 72.748C794.451 72.208 793.713 71.494 793.209 70.606C792.717 69.718 792.471 68.74 792.471 67.672C792.471 66.736 792.627 65.896 792.939 65.152C793.251 64.396 793.731 63.748 794.379 63.208C795.027 62.656 795.867 62.206 796.899 61.858C797.679 61.606 798.591 61.378 799.635 61.174C800.691 60.97 801.831 60.784 803.055 60.616C804.291 60.436 805.581 60.244 806.925 60.04L805.377 60.922C805.389 59.578 805.089 58.588 804.477 57.952C803.865 57.316 802.833 56.998 801.381 56.998C800.505 56.998 799.659 57.202 798.843 57.61C798.027 58.018 797.457 58.72 797.133 59.716L793.173 58.474C793.653 56.83 794.565 55.51 795.909 54.514C797.265 53.518 799.089 53.02 801.381 53.02C803.109 53.02 804.627 53.302 805.935 53.866C807.255 54.43 808.233 55.354 808.869 56.638C809.217 57.322 809.427 58.024 809.499 58.744C809.571 59.452 809.607 60.226 809.607 61.066V73H805.809V68.788L806.439 69.472C805.563 70.876 804.537 71.908 803.361 72.568C802.197 73.216 800.739 73.54 798.987 73.54ZM799.851 70.084C800.835 70.084 801.675 69.91 802.371 69.562C803.067 69.214 803.619 68.788 804.027 68.284C804.447 67.78 804.729 67.306 804.873 66.862C805.101 66.31 805.227 65.68 805.251 64.972C805.287 64.252 805.305 63.67 805.305 63.226L806.637 63.622C805.329 63.826 804.207 64.006 803.271 64.162C802.335 64.318 801.531 64.468 800.859 64.612C800.187 64.744 799.593 64.894 799.077 65.062C798.573 65.242 798.147 65.452 797.799 65.692C797.451 65.932 797.181 66.208 796.989 66.52C796.809 66.832 796.719 67.198 796.719 67.618C796.719 68.098 796.839 68.524 797.079 68.896C797.319 69.256 797.667 69.544 798.123 69.76C798.591 69.976 799.167 70.084 799.851 70.084ZM827.739 73V63.64C827.739 63.028 827.697 62.35 827.613 61.606C827.529 60.862 827.331 60.148 827.019 59.464C826.719 58.768 826.263 58.198 825.651 57.754C825.051 57.31 824.235 57.088 823.203 57.088C822.651 57.088 822.105 57.178 821.565 57.358C821.025 57.538 820.533 57.85 820.089 58.294C819.657 58.726 819.309 59.326 819.045 60.094C818.781 60.85 818.649 61.822 818.649 63.01L816.075 61.912C816.075 60.256 816.393 58.756 817.029 57.412C817.677 56.068 818.625 55 819.873 54.208C821.121 53.404 822.657 53.002 824.481 53.002C825.921 53.002 827.109 53.242 828.045 53.722C828.981 54.202 829.725 54.814 830.277 55.558C830.829 56.302 831.237 57.094 831.501 57.934C831.765 58.774 831.933 59.572 832.005 60.328C832.089 61.072 832.131 61.678 832.131 62.146V73H827.739ZM814.257 73V53.56H818.127V59.59H818.649V73H814.257ZM848.223 73C846.939 73.24 845.679 73.342 844.443 73.306C843.219 73.282 842.121 73.06 841.149 72.64C840.177 72.208 839.439 71.53 838.935 70.606C838.491 69.766 838.257 68.908 838.233 68.032C838.209 67.156 838.197 66.166 838.197 65.062V48.16H842.517V64.81C842.517 65.59 842.523 66.274 842.535 66.862C842.559 67.45 842.685 67.93 842.913 68.302C843.345 69.022 844.035 69.424 844.983 69.508C845.931 69.592 847.011 69.544 848.223 69.364V73ZM834.669 56.962V53.56H848.223V56.962H834.669ZM695.962 127.54C693.958 127.54 692.248 127.096 690.832 126.208C689.416 125.308 688.33 124.084 687.574 122.536C686.83 120.988 686.452 119.236 686.44 117.28C686.452 115.288 686.842 113.524 687.61 111.988C688.39 110.44 689.494 109.228 690.922 108.352C692.35 107.464 694.048 107.02 696.016 107.02C698.224 107.02 700.09 107.578 701.614 108.694C703.15 109.798 704.152 111.31 704.62 113.23L700.3 114.4C699.964 113.356 699.406 112.546 698.626 111.97C697.846 111.382 696.958 111.088 695.962 111.088C694.834 111.088 693.904 111.358 693.172 111.898C692.44 112.426 691.9 113.158 691.552 114.094C691.204 115.03 691.03 116.092 691.03 117.28C691.03 119.128 691.444 120.622 692.272 121.762C693.1 122.902 694.33 123.472 695.962 123.472C697.114 123.472 698.02 123.208 698.68 122.68C699.352 122.152 699.856 121.39 700.192 120.394L704.62 121.384C704.02 123.364 702.97 124.888 701.47 125.956C699.97 127.012 698.134 127.54 695.962 127.54ZM708.06 104.608V100.63H712.398V104.608H708.06ZM708.06 127V107.56H712.398V127H708.06ZM731.236 127V117.64C731.236 117.028 731.194 116.35 731.11 115.606C731.026 114.862 730.828 114.148 730.516 113.464C730.216 112.768 729.76 112.198 729.148 111.754C728.548 111.31 727.732 111.088 726.7 111.088C726.148 111.088 725.602 111.178 725.062 111.358C724.522 111.538 724.03 111.85 723.586 112.294C723.154 112.726 722.806 113.326 722.542 114.094C722.278 114.85 722.146 115.822 722.146 117.01L719.572 115.912C719.572 114.256 719.89 112.756 720.526 111.412C721.174 110.068 722.122 109 723.37 108.208C724.618 107.404 726.154 107.002 727.978 107.002C729.418 107.002 730.606 107.242 731.542 107.722C732.478 108.202 733.222 108.814 733.774 109.558C734.326 110.302 734.734 111.094 734.998 111.934C735.262 112.774 735.43 113.572 735.502 114.328C735.586 115.072 735.628 115.678 735.628 116.146V127H731.236ZM717.754 127V107.56H721.624V113.59H722.146V127H717.754ZM753.771 127V117.64C753.771 117.028 753.729 116.35 753.645 115.606C753.561 114.862 753.363 114.148 753.051 113.464C752.751 112.768 752.295 112.198 751.683 111.754C751.083 111.31 750.267 111.088 749.235 111.088C748.683 111.088 748.137 111.178 747.597 111.358C747.057 111.538 746.565 111.85 746.121 112.294C745.689 112.726 745.341 113.326 745.077 114.094C744.813 114.85 744.681 115.822 744.681 117.01L742.107 115.912C742.107 114.256 742.425 112.756 743.061 111.412C743.709 110.068 744.657 109 745.905 108.208C747.153 107.404 748.689 107.002 750.513 107.002C751.953 107.002 753.141 107.242 754.077 107.722C755.013 108.202 755.757 108.814 756.309 109.558C756.861 110.302 757.269 111.094 757.533 111.934C757.797 112.774 757.965 113.572 758.037 114.328C758.121 115.072 758.163 115.678 758.163 116.146V127H753.771ZM740.289 127V107.56H744.159V113.59H744.681V127H740.289ZM768.296 127.54C766.892 127.54 765.704 127.276 764.732 126.748C763.76 126.208 763.022 125.494 762.518 124.606C762.026 123.718 761.78 122.74 761.78 121.672C761.78 120.736 761.936 119.896 762.248 119.152C762.56 118.396 763.04 117.748 763.688 117.208C764.336 116.656 765.176 116.206 766.208 115.858C766.988 115.606 767.9 115.378 768.944 115.174C770 114.97 771.14 114.784 772.364 114.616C773.6 114.436 774.89 114.244 776.234 114.04L774.686 114.922C774.698 113.578 774.398 112.588 773.786 111.952C773.174 111.316 772.142 110.998 770.69 110.998C769.814 110.998 768.968 111.202 768.152 111.61C767.336 112.018 766.766 112.72 766.442 113.716L762.482 112.474C762.962 110.83 763.874 109.51 765.218 108.514C766.574 107.518 768.398 107.02 770.69 107.02C772.418 107.02 773.936 107.302 775.244 107.866C776.564 108.43 777.542 109.354 778.178 110.638C778.526 111.322 778.736 112.024 778.808 112.744C778.88 113.452 778.916 114.226 778.916 115.066V127H775.118V122.788L775.748 123.472C774.872 124.876 773.846 125.908 772.67 126.568C771.506 127.216 770.048 127.54 768.296 127.54ZM769.16 124.084C770.144 124.084 770.984 123.91 771.68 123.562C772.376 123.214 772.928 122.788 773.336 122.284C773.756 121.78 774.038 121.306 774.182 120.862C774.41 120.31 774.536 119.68 774.56 118.972C774.596 118.252 774.614 117.67 774.614 117.226L775.946 117.622C774.638 117.826 773.516 118.006 772.58 118.162C771.644 118.318 770.84 118.468 770.168 118.612C769.496 118.744 768.902 118.894 768.386 119.062C767.882 119.242 767.456 119.452 767.108 119.692C766.76 119.932 766.49 120.208 766.298 120.52C766.118 120.832 766.028 121.198 766.028 121.618C766.028 122.098 766.148 122.524 766.388 122.896C766.628 123.256 766.976 123.544 767.432 123.76C767.9 123.976 768.476 124.084 769.16 124.084ZM806.948 127V115.192C806.948 113.86 806.618 112.822 805.958 112.078C805.298 111.322 804.404 110.944 803.276 110.944C802.58 110.944 801.956 111.106 801.404 111.43C800.852 111.742 800.414 112.21 800.09 112.834C799.766 113.446 799.604 114.178 799.604 115.03L797.678 113.896C797.666 112.552 797.966 111.37 798.578 110.35C799.202 109.318 800.042 108.514 801.098 107.938C802.154 107.362 803.33 107.074 804.626 107.074C806.774 107.074 808.418 107.722 809.558 109.018C810.71 110.302 811.286 111.994 811.286 114.094V127H806.948ZM783.566 127V107.56H787.4V113.59H787.94V127H783.566ZM795.284 127V115.246C795.284 113.89 794.954 112.834 794.294 112.078C793.634 111.322 792.734 110.944 791.594 110.944C790.49 110.944 789.602 111.322 788.93 112.078C788.27 112.834 787.94 113.818 787.94 115.03L785.996 113.734C785.996 112.474 786.308 111.34 786.932 110.332C787.556 109.324 788.396 108.532 789.452 107.956C790.52 107.368 791.714 107.074 793.034 107.074C794.486 107.074 795.698 107.386 796.67 108.01C797.654 108.622 798.386 109.462 798.866 110.53C799.358 111.586 799.604 112.78 799.604 114.112V127H795.284ZM824.251 127.54C822.307 127.54 820.609 127.102 819.157 126.226C817.705 125.35 816.577 124.144 815.773 122.608C814.981 121.06 814.585 119.284 814.585 117.28C814.585 115.24 814.993 113.452 815.809 111.916C816.625 110.38 817.759 109.18 819.211 108.316C820.663 107.452 822.343 107.02 824.251 107.02C826.207 107.02 827.911 107.458 829.363 108.334C830.815 109.21 831.943 110.422 832.747 111.97C833.551 113.506 833.953 115.276 833.953 117.28C833.953 119.296 833.545 121.078 832.729 122.626C831.925 124.162 830.797 125.368 829.345 126.244C827.893 127.108 826.195 127.54 824.251 127.54ZM824.251 123.472C825.979 123.472 827.263 122.896 828.103 121.744C828.943 120.592 829.363 119.104 829.363 117.28C829.363 115.396 828.937 113.896 828.085 112.78C827.233 111.652 825.955 111.088 824.251 111.088C823.087 111.088 822.127 111.352 821.371 111.88C820.627 112.396 820.075 113.122 819.715 114.058C819.355 114.982 819.175 116.056 819.175 117.28C819.175 119.164 819.601 120.67 820.453 121.798C821.317 122.914 822.583 123.472 824.251 123.472ZM851.364 127V117.64C851.364 117.028 851.322 116.35 851.238 115.606C851.154 114.862 850.956 114.148 850.644 113.464C850.344 112.768 849.888 112.198 849.276 111.754C848.676 111.31 847.86 111.088 846.828 111.088C846.276 111.088 845.73 111.178 845.19 111.358C844.65 111.538 844.158 111.85 843.714 112.294C843.282 112.726 842.934 113.326 842.67 114.094C842.406 114.85 842.274 115.822 842.274 117.01L839.7 115.912C839.7 114.256 840.018 112.756 840.654 111.412C841.302 110.068 842.25 109 843.498 108.208C844.746 107.404 846.282 107.002 848.106 107.002C849.546 107.002 850.734 107.242 851.67 107.722C852.606 108.202 853.35 108.814 853.902 109.558C854.454 110.302 854.862 111.094 855.126 111.934C855.39 112.774 855.558 113.572 855.63 114.328C855.714 115.072 855.756 115.678 855.756 116.146V127H851.364ZM837.882 127V107.56H841.752V113.59H842.274V127H837.882ZM868.021 127V100.54H872.359V127H868.021ZM886.336 127.54C884.392 127.54 882.694 127.102 881.242 126.226C879.79 125.35 878.662 124.144 877.858 122.608C877.066 121.06 876.67 119.284 876.67 117.28C876.67 115.24 877.078 113.452 877.894 111.916C878.71 110.38 879.844 109.18 881.296 108.316C882.748 107.452 884.428 107.02 886.336 107.02C888.292 107.02 889.996 107.458 891.448 108.334C892.9 109.21 894.028 110.422 894.832 111.97C895.636 113.506 896.038 115.276 896.038 117.28C896.038 119.296 895.63 121.078 894.814 122.626C894.01 124.162 892.882 125.368 891.43 126.244C889.978 127.108 888.28 127.54 886.336 127.54ZM886.336 123.472C888.064 123.472 889.348 122.896 890.188 121.744C891.028 120.592 891.448 119.104 891.448 117.28C891.448 115.396 891.022 113.896 890.17 112.78C889.318 111.652 888.04 111.088 886.336 111.088C885.172 111.088 884.212 111.352 883.456 111.88C882.712 112.396 882.16 113.122 881.8 114.058C881.44 114.982 881.26 116.056 881.26 117.28C881.26 119.164 881.686 120.67 882.538 121.798C883.402 122.914 884.668 123.472 886.336 123.472ZM905.44 127.54C904.036 127.54 902.848 127.276 901.876 126.748C900.904 126.208 900.166 125.494 899.662 124.606C899.17 123.718 898.924 122.74 898.924 121.672C898.924 120.736 899.08 119.896 899.392 119.152C899.704 118.396 900.184 117.748 900.832 117.208C901.48 116.656 902.32 116.206 903.352 115.858C904.132 115.606 905.044 115.378 906.088 115.174C907.144 114.97 908.284 114.784 909.508 114.616C910.744 114.436 912.034 114.244 913.378 114.04L911.83 114.922C911.842 113.578 911.542 112.588 910.93 111.952C910.318 111.316 909.286 110.998 907.834 110.998C906.958 110.998 906.112 111.202 905.296 111.61C904.48 112.018 903.91 112.72 903.586 113.716L899.626 112.474C900.106 110.83 901.018 109.51 902.362 108.514C903.718 107.518 905.542 107.02 907.834 107.02C909.562 107.02 911.08 107.302 912.388 107.866C913.708 108.43 914.686 109.354 915.322 110.638C915.67 111.322 915.88 112.024 915.952 112.744C916.024 113.452 916.06 114.226 916.06 115.066V127H912.262V122.788L912.892 123.472C912.016 124.876 910.99 125.908 909.814 126.568C908.65 127.216 907.192 127.54 905.44 127.54ZM906.304 124.084C907.288 124.084 908.128 123.91 908.824 123.562C909.52 123.214 910.072 122.788 910.48 122.284C910.9 121.78 911.182 121.306 911.326 120.862C911.554 120.31 911.68 119.68 911.704 118.972C911.74 118.252 911.758 117.67 911.758 117.226L913.09 117.622C911.782 117.826 910.66 118.006 909.724 118.162C908.788 118.318 907.984 118.468 907.312 118.612C906.64 118.744 906.046 118.894 905.53 119.062C905.026 119.242 904.6 119.452 904.252 119.692C903.904 119.932 903.634 120.208 903.442 120.52C903.262 120.832 903.172 121.198 903.172 121.618C903.172 122.098 903.292 122.524 903.532 122.896C903.772 123.256 904.12 123.544 904.576 123.76C905.044 123.976 905.62 124.084 906.304 124.084ZM922.439 127V107.254C922.439 106.762 922.457 106.222 922.493 105.634C922.529 105.034 922.631 104.44 922.799 103.852C922.967 103.264 923.273 102.73 923.717 102.25C924.269 101.638 924.863 101.218 925.499 100.99C926.147 100.75 926.783 100.618 927.407 100.594C928.031 100.558 928.577 100.54 929.045 100.54H931.475V104.068H929.225C928.397 104.068 927.779 104.278 927.371 104.698C926.975 105.106 926.777 105.646 926.777 106.318V127H922.439ZM919.307 110.962V107.56H931.475V110.962H919.307Z" fill="#3300FF"/>
</g>
<defs>
<clipPath id="clip0_8_65">
<rect width="1050" height="600" fill="white"/>
</clipPath>
</defs>
</svg>
